<svg width="230" height="204" viewBox="0 0 230 204" fill="none" xmlns="http://www.w3.org/2000/svg">
<g clip-path="url(#clip0_91_25)">
<path d="M230 0H0V204H230V0Z" fill="white"/>
<path d="M96.7749 58.9491L114.724 41L132.666 58.9491H96.7749Z" fill="#95BEE0"/>
<path d="M68 88.5903L115.02 41.5703L162.048 88.5903" stroke="#333333" stroke-width="2.5" stroke-linecap="round" stroke-linejoin="round"/>
<path d="M132.377 84.8287C128.252 80.1933 120.537 80.1045 115.027 85.9839C109.511 80.1045 101.803 80.1933 97.6781 84.8287C89.6292 93.8699 97.9817 105.488 106.083 110.945C108.733 112.737 111.954 114.092 115.027 114.966C118.1 114.1 121.321 112.737 123.972 110.945C132.073 105.48 140.426 93.8699 132.377 84.8287Z" fill="#132C30" stroke="#333333" stroke-width="2.5" stroke-linecap="round" stroke-linejoin="round"/>
<path d="M144.18 71.2695V122.999H85.8677V71.2695" stroke="#333333" stroke-width="2.5" stroke-linecap="round" stroke-linejoin="round"/>
<path d="M64.392 147.21V146.273H70.9375V147.21H68.1932V155H67.1364V147.21H64.392ZM73.4677 155.153C73.0529 155.153 72.6765 155.075 72.3384 154.919C72.0004 154.76 71.7319 154.531 71.533 154.233C71.3342 153.932 71.2347 153.568 71.2347 153.142C71.2347 152.767 71.3086 152.463 71.4563 152.23C71.604 151.994 71.8015 151.81 72.0487 151.676C72.2958 151.543 72.5685 151.443 72.8668 151.378C73.168 151.31 73.4705 151.256 73.7745 151.216C74.1722 151.165 74.4947 151.126 74.7418 151.101C74.9918 151.072 75.1737 151.026 75.2873 150.96C75.4038 150.895 75.462 150.781 75.462 150.619V150.585C75.462 150.165 75.3469 149.838 75.1168 149.605C74.8896 149.372 74.5444 149.256 74.0813 149.256C73.6012 149.256 73.2248 149.361 72.9521 149.571C72.6793 149.781 72.4876 150.006 72.3768 150.244L71.4222 149.903C71.5927 149.506 71.82 149.196 72.104 148.974C72.391 148.75 72.7035 148.594 73.0415 148.506C73.3825 148.415 73.7177 148.369 74.0472 148.369C74.2575 148.369 74.4989 148.395 74.7717 148.446C75.0472 148.494 75.3129 148.595 75.5685 148.749C75.8271 148.902 76.0415 149.134 76.212 149.443C76.3825 149.753 76.4677 150.168 76.4677 150.688V155H75.462V154.114H75.4109C75.3427 154.256 75.229 154.408 75.07 154.57C74.9109 154.732 74.6992 154.869 74.435 154.983C74.1708 155.097 73.8484 155.153 73.4677 155.153ZM73.6211 154.25C74.0188 154.25 74.354 154.172 74.6268 154.016C74.9023 153.859 75.1097 153.658 75.2489 153.411C75.391 153.163 75.462 152.903 75.462 152.631V151.71C75.4194 151.761 75.3256 151.808 75.1808 151.851C75.0387 151.891 74.8739 151.926 74.6864 151.957C74.5018 151.986 74.3214 152.011 74.1452 152.034C73.9719 152.054 73.8313 152.071 73.7234 152.085C73.462 152.119 73.2177 152.175 72.9904 152.251C72.766 152.325 72.5842 152.437 72.445 152.588C72.3086 152.736 72.2404 152.937 72.2404 153.193C72.2404 153.543 72.3697 153.807 72.6282 153.986C72.8896 154.162 73.2205 154.25 73.6211 154.25ZM79.2408 152.614L79.2237 151.369H79.4283L82.2919 148.455H83.5362L80.4851 151.54H80.3999L79.2408 152.614ZM78.3033 155V146.273H79.3089V155H78.3033ZM82.4624 155L79.9055 151.761L80.6214 151.062L83.7408 155H82.4624ZM87.3054 155.136C86.6747 155.136 86.1307 154.997 85.6733 154.719C85.2188 154.438 84.8679 154.045 84.6207 153.543C84.3764 153.037 84.2543 152.449 84.2543 151.778C84.2543 151.108 84.3764 150.517 84.6207 150.006C84.8679 149.491 85.2116 149.091 85.652 148.804C86.0952 148.514 86.6122 148.369 87.2031 148.369C87.544 148.369 87.8807 148.426 88.2131 148.54C88.5455 148.653 88.848 148.838 89.1207 149.094C89.3935 149.347 89.6108 149.682 89.7727 150.099C89.9347 150.517 90.0156 151.031 90.0156 151.642V152.068H84.9702V151.199H88.9929C88.9929 150.83 88.919 150.5 88.7713 150.21C88.6264 149.92 88.419 149.692 88.1491 149.524C87.8821 149.357 87.5668 149.273 87.2031 149.273C86.8026 149.273 86.456 149.372 86.1634 149.571C85.8736 149.767 85.6506 150.023 85.4943 150.338C85.3381 150.653 85.2599 150.991 85.2599 151.352V151.932C85.2599 152.426 85.3452 152.845 85.5156 153.189C85.6889 153.53 85.929 153.79 86.2358 153.969C86.5426 154.145 86.8991 154.233 87.3054 154.233C87.5696 154.233 87.8082 154.196 88.0213 154.122C88.2372 154.045 88.4233 153.932 88.5795 153.781C88.7358 153.628 88.8565 153.437 88.9418 153.21L89.9134 153.483C89.8111 153.812 89.6392 154.102 89.3977 154.352C89.1563 154.599 88.858 154.793 88.5028 154.932C88.1477 155.068 87.7486 155.136 87.3054 155.136ZM97.5795 155.136C96.9659 155.136 96.4375 154.991 95.9943 154.702C95.5511 154.412 95.2102 154.013 94.9716 153.504C94.733 152.996 94.6136 152.415 94.6136 151.761C94.6136 151.097 94.7358 150.51 94.9801 150.001C95.2273 149.49 95.571 149.091 96.0114 148.804C96.4545 148.514 96.9716 148.369 97.5625 148.369C98.0227 148.369 98.4375 148.455 98.8068 148.625C99.1761 148.795 99.4787 149.034 99.7145 149.341C99.9503 149.648 100.097 150.006 100.153 150.415H99.1477C99.071 150.116 98.9006 149.852 98.6364 149.622C98.375 149.389 98.0227 149.273 97.5795 149.273C97.1875 149.273 96.8438 149.375 96.5483 149.58C96.2557 149.781 96.027 150.067 95.8622 150.436C95.7003 150.803 95.6193 151.233 95.6193 151.727C95.6193 152.233 95.6989 152.673 95.858 153.048C96.0199 153.423 96.2472 153.714 96.5398 153.922C96.8352 154.129 97.1818 154.233 97.5795 154.233C97.8409 154.233 98.0781 154.188 98.2912 154.097C98.5043 154.006 98.6847 153.875 98.8324 153.705C98.9801 153.534 99.0852 153.33 99.1477 153.091H100.153C100.097 153.477 99.956 153.825 99.7315 154.135C99.5099 154.442 99.2159 154.686 98.8494 154.868C98.4858 155.047 98.0625 155.136 97.5795 155.136ZM103.55 155.153C103.135 155.153 102.759 155.075 102.42 154.919C102.082 154.76 101.814 154.531 101.615 154.233C101.416 153.932 101.317 153.568 101.317 153.142C101.317 152.767 101.391 152.463 101.538 152.23C101.686 151.994 101.884 151.81 102.131 151.676C102.378 151.543 102.651 151.443 102.949 151.378C103.25 151.31 103.553 151.256 103.857 151.216C104.254 151.165 104.577 151.126 104.824 151.101C105.074 151.072 105.256 151.026 105.369 150.96C105.486 150.895 105.544 150.781 105.544 150.619V150.585C105.544 150.165 105.429 149.838 105.199 149.605C104.972 149.372 104.626 149.256 104.163 149.256C103.683 149.256 103.307 149.361 103.034 149.571C102.761 149.781 102.57 150.006 102.459 150.244L101.504 149.903C101.675 149.506 101.902 149.196 102.186 148.974C102.473 148.75 102.786 148.594 103.124 148.506C103.464 148.415 103.8 148.369 104.129 148.369C104.339 148.369 104.581 148.395 104.854 148.446C105.129 148.494 105.395 148.595 105.651 148.749C105.909 148.902 106.124 149.134 106.294 149.443C106.464 149.753 106.55 150.168 106.55 150.688V155H105.544V154.114H105.493C105.425 154.256 105.311 154.408 105.152 154.57C104.993 154.732 104.781 154.869 104.517 154.983C104.253 155.097 103.93 155.153 103.55 155.153ZM103.703 154.25C104.101 154.25 104.436 154.172 104.709 154.016C104.984 153.859 105.192 153.658 105.331 153.411C105.473 153.163 105.544 152.903 105.544 152.631V151.71C105.501 151.761 105.408 151.808 105.263 151.851C105.121 151.891 104.956 151.926 104.768 151.957C104.584 151.986 104.403 152.011 104.227 152.034C104.054 152.054 103.913 152.071 103.805 152.085C103.544 152.119 103.3 152.175 103.072 152.251C102.848 152.325 102.666 152.437 102.527 152.588C102.391 152.736 102.322 152.937 102.322 153.193C102.322 153.543 102.452 153.807 102.71 153.986C102.972 154.162 103.303 154.25 103.703 154.25ZM108.385 155V148.455H109.357V149.443H109.425C109.544 149.119 109.76 148.857 110.073 148.655C110.385 148.453 110.738 148.352 111.13 148.352C111.203 148.352 111.296 148.354 111.407 148.357C111.517 148.359 111.601 148.364 111.658 148.369V149.392C111.624 149.384 111.546 149.371 111.424 149.354C111.304 149.334 111.178 149.324 111.044 149.324C110.726 149.324 110.442 149.391 110.192 149.524C109.945 149.655 109.749 149.837 109.604 150.07C109.462 150.3 109.391 150.562 109.391 150.858V155H108.385ZM115.395 155.136C114.765 155.136 114.221 154.997 113.763 154.719C113.309 154.438 112.958 154.045 112.711 153.543C112.466 153.037 112.344 152.449 112.344 151.778C112.344 151.108 112.466 150.517 112.711 150.006C112.958 149.491 113.301 149.091 113.742 148.804C114.185 148.514 114.702 148.369 115.293 148.369C115.634 148.369 115.971 148.426 116.303 148.54C116.635 148.653 116.938 148.838 117.211 149.094C117.483 149.347 117.701 149.682 117.863 150.099C118.025 150.517 118.105 151.031 118.105 151.642V152.068H113.06V151.199H117.083C117.083 150.83 117.009 150.5 116.861 150.21C116.716 149.92 116.509 149.692 116.239 149.524C115.972 149.357 115.657 149.273 115.293 149.273C114.892 149.273 114.546 149.372 114.253 149.571C113.963 149.767 113.74 150.023 113.584 150.338C113.428 150.653 113.35 150.991 113.35 151.352V151.932C113.35 152.426 113.435 152.845 113.605 153.189C113.779 153.53 114.019 153.79 114.326 153.969C114.632 154.145 114.989 154.233 115.395 154.233C115.659 154.233 115.898 154.196 116.111 154.122C116.327 154.045 116.513 153.932 116.669 153.781C116.826 153.628 116.946 153.437 117.032 153.21L118.003 153.483C117.901 153.812 117.729 154.102 117.488 154.352C117.246 154.599 116.948 154.793 116.593 154.932C116.238 155.068 115.838 155.136 115.395 155.136ZM125.925 148.455V149.307H122.397V148.455H125.925ZM123.453 155V147.551C123.453 147.176 123.542 146.864 123.718 146.614C123.894 146.364 124.123 146.176 124.404 146.051C124.685 145.926 124.982 145.864 125.294 145.864C125.542 145.864 125.743 145.884 125.9 145.923C126.056 145.963 126.172 146 126.249 146.034L125.959 146.903C125.908 146.886 125.837 146.865 125.746 146.839C125.658 146.814 125.542 146.801 125.397 146.801C125.064 146.801 124.824 146.885 124.676 147.053C124.532 147.22 124.459 147.466 124.459 147.79V155H123.453ZM129.724 155.136C129.133 155.136 128.615 154.996 128.169 154.714C127.725 154.433 127.379 154.04 127.129 153.534C126.882 153.028 126.758 152.437 126.758 151.761C126.758 151.08 126.882 150.484 127.129 149.976C127.379 149.467 127.725 149.072 128.169 148.791C128.615 148.51 129.133 148.369 129.724 148.369C130.315 148.369 130.832 148.51 131.275 148.791C131.721 149.072 132.068 149.467 132.315 149.976C132.565 150.484 132.69 151.08 132.69 151.761C132.69 152.437 132.565 153.028 132.315 153.534C132.068 154.04 131.721 154.433 131.275 154.714C130.832 154.996 130.315 155.136 129.724 155.136ZM129.724 154.233C130.173 154.233 130.542 154.118 130.832 153.888C131.122 153.658 131.336 153.355 131.475 152.98C131.615 152.605 131.684 152.199 131.684 151.761C131.684 151.324 131.615 150.916 131.475 150.538C131.336 150.161 131.122 149.855 130.832 149.622C130.542 149.389 130.173 149.273 129.724 149.273C129.275 149.273 128.906 149.389 128.616 149.622C128.326 149.855 128.112 150.161 127.973 150.538C127.833 150.916 127.764 151.324 127.764 151.761C127.764 152.199 127.833 152.605 127.973 152.98C128.112 153.355 128.326 153.658 128.616 153.888C128.906 154.118 129.275 154.233 129.724 154.233ZM134.225 155V148.455H135.197V149.443H135.265C135.384 149.119 135.6 148.857 135.913 148.655C136.225 148.453 136.577 148.352 136.969 148.352C137.043 148.352 137.136 148.354 137.246 148.357C137.357 148.359 137.441 148.364 137.498 148.369V149.392C137.464 149.384 137.386 149.371 137.263 149.354C137.144 149.334 137.018 149.324 136.884 149.324C136.566 149.324 136.282 149.391 136.032 149.524C135.785 149.655 135.589 149.837 135.444 150.07C135.302 150.3 135.231 150.562 135.231 150.858V155H134.225ZM142.713 157.455C142.542 157.455 142.39 157.44 142.257 157.412C142.123 157.386 142.031 157.361 141.98 157.335L142.235 156.449C142.48 156.511 142.696 156.534 142.883 156.517C143.071 156.5 143.237 156.416 143.382 156.266C143.529 156.118 143.664 155.878 143.787 155.545L143.974 155.034L141.554 148.455H142.645L144.451 153.67H144.52L146.326 148.455H147.417L144.639 155.955C144.514 156.293 144.359 156.572 144.174 156.794C143.99 157.018 143.775 157.185 143.531 157.293C143.289 157.401 143.017 157.455 142.713 157.455ZM151.169 155.136C150.578 155.136 150.06 154.996 149.614 154.714C149.171 154.433 148.824 154.04 148.574 153.534C148.327 153.028 148.203 152.437 148.203 151.761C148.203 151.08 148.327 150.484 148.574 149.976C148.824 149.467 149.171 149.072 149.614 148.791C150.06 148.51 150.578 148.369 151.169 148.369C151.76 148.369 152.277 148.51 152.721 148.791C153.167 149.072 153.513 149.467 153.76 149.976C154.01 150.484 154.135 151.08 154.135 151.761C154.135 152.437 154.01 153.028 153.76 153.534C153.513 154.04 153.167 154.433 152.721 154.714C152.277 154.996 151.76 155.136 151.169 155.136ZM151.169 154.233C151.618 154.233 151.988 154.118 152.277 153.888C152.567 153.658 152.782 153.355 152.921 152.98C153.06 152.605 153.13 152.199 153.13 151.761C153.13 151.324 153.06 150.916 152.921 150.538C152.782 150.161 152.567 149.855 152.277 149.622C151.988 149.389 151.618 149.273 151.169 149.273C150.721 149.273 150.351 149.389 150.061 149.622C149.772 149.855 149.557 150.161 149.418 150.538C149.279 150.916 149.209 151.324 149.209 151.761C149.209 152.199 149.279 152.605 149.418 152.98C149.557 153.355 149.772 153.658 150.061 153.888C150.351 154.118 150.721 154.233 151.169 154.233ZM159.795 152.324V148.455H160.801V155H159.795V153.892H159.727C159.574 154.224 159.335 154.507 159.011 154.74C158.688 154.97 158.278 155.085 157.784 155.085C157.375 155.085 157.011 154.996 156.693 154.817C156.375 154.635 156.125 154.362 155.943 153.999C155.761 153.632 155.67 153.17 155.67 152.614V148.455H156.676V152.545C156.676 153.023 156.81 153.403 157.077 153.688C157.347 153.972 157.69 154.114 158.108 154.114C158.358 154.114 158.612 154.05 158.871 153.922C159.132 153.794 159.351 153.598 159.527 153.334C159.706 153.07 159.795 152.733 159.795 152.324ZM162.643 155V148.455H163.615V149.443H163.683C163.802 149.119 164.018 148.857 164.331 148.655C164.643 148.453 164.995 148.352 165.387 148.352C165.461 148.352 165.554 148.354 165.664 148.357C165.775 148.359 165.859 148.364 165.916 148.369V149.392C165.882 149.384 165.804 149.371 165.681 149.354C165.562 149.334 165.436 149.324 165.302 149.324C164.984 149.324 164.7 149.391 164.45 149.524C164.203 149.655 164.007 149.837 163.862 150.07C163.72 150.3 163.649 150.562 163.649 150.858V155H162.643ZM67.5316 166.062V170H66.5259V161.273H67.5316V164.477H67.6168C67.7702 164.139 68.0004 163.871 68.3072 163.672C68.6168 163.47 69.0288 163.369 69.543 163.369C69.989 163.369 70.3796 163.459 70.7148 163.638C71.0501 163.814 71.31 164.085 71.4947 164.452C71.6822 164.815 71.7759 165.278 71.7759 165.841V170H70.7702V165.909C70.7702 165.389 70.6353 164.987 70.3654 164.703C70.0984 164.416 69.7276 164.273 69.2532 164.273C68.9237 164.273 68.6282 164.342 68.3668 164.482C68.1083 164.621 67.9038 164.824 67.7532 165.091C67.6055 165.358 67.5316 165.682 67.5316 166.062ZM76.2749 170.136C75.6839 170.136 75.1655 169.996 74.7195 169.714C74.2763 169.433 73.9297 169.04 73.6797 168.534C73.4325 168.028 73.3089 167.437 73.3089 166.761C73.3089 166.08 73.4325 165.484 73.6797 164.976C73.9297 164.467 74.2763 164.072 74.7195 163.791C75.1655 163.51 75.6839 163.369 76.2749 163.369C76.8658 163.369 77.3828 163.51 77.826 163.791C78.272 164.072 78.6186 164.467 78.8658 164.976C79.1158 165.484 79.2408 166.08 79.2408 166.761C79.2408 167.437 79.1158 168.028 78.8658 168.534C78.6186 169.04 78.272 169.433 77.826 169.714C77.3828 169.996 76.8658 170.136 76.2749 170.136ZM76.2749 169.233C76.7237 169.233 77.093 169.118 77.3828 168.888C77.6726 168.658 77.8871 168.355 78.0263 167.98C78.1655 167.605 78.2351 167.199 78.2351 166.761C78.2351 166.324 78.1655 165.916 78.0263 165.538C77.8871 165.161 77.6726 164.855 77.3828 164.622C77.093 164.389 76.7237 164.273 76.2749 164.273C75.826 164.273 75.4567 164.389 75.1669 164.622C74.8771 164.855 74.6626 165.161 74.5234 165.538C74.3842 165.916 74.3146 166.324 74.3146 166.761C74.3146 167.199 74.3842 167.605 74.5234 167.98C74.6626 168.355 74.8771 168.658 75.1669 168.888C75.4567 169.118 75.826 169.233 76.2749 169.233ZM80.7759 170V163.455H81.7475V164.477H81.8327C81.9691 164.128 82.1893 163.857 82.4933 163.663C82.7972 163.467 83.1623 163.369 83.5884 163.369C84.0202 163.369 84.3796 163.467 84.6665 163.663C84.9563 163.857 85.1822 164.128 85.3441 164.477H85.4123C85.5799 164.139 85.8313 163.871 86.1665 163.672C86.5018 163.47 86.9038 163.369 87.3725 163.369C87.9577 163.369 88.4364 163.553 88.8086 163.919C89.1808 164.283 89.3668 164.849 89.3668 165.619V170H88.3612V165.619C88.3612 165.136 88.229 164.791 87.9648 164.584C87.7006 164.376 87.3896 164.273 87.0316 164.273C86.5714 164.273 86.2148 164.412 85.962 164.69C85.7092 164.966 85.5827 165.315 85.5827 165.739V170H84.56V165.517C84.56 165.145 84.4393 164.845 84.1978 164.618C83.9563 164.388 83.6452 164.273 83.2646 164.273C83.0032 164.273 82.7589 164.342 82.5316 164.482C82.3072 164.621 82.1254 164.814 81.9862 165.061C81.8498 165.305 81.7816 165.588 81.7816 165.909V170H80.7759ZM93.9499 170.136C93.3192 170.136 92.7752 169.997 92.3178 169.719C91.8633 169.438 91.5124 169.045 91.2653 168.543C91.021 168.037 90.8988 167.449 90.8988 166.778C90.8988 166.108 91.021 165.517 91.2653 165.006C91.5124 164.491 91.8562 164.091 92.2965 163.804C92.7397 163.514 93.2567 163.369 93.8477 163.369C94.1886 163.369 94.5252 163.426 94.8576 163.54C95.19 163.653 95.4925 163.838 95.7653 164.094C96.038 164.347 96.2553 164.682 96.4173 165.099C96.5792 165.517 96.6602 166.031 96.6602 166.642V167.068H91.6147V166.199H95.6374C95.6374 165.83 95.5636 165.5 95.4158 165.21C95.271 164.92 95.0636 164.692 94.7937 164.524C94.5266 164.357 94.2113 164.273 93.8477 164.273C93.4471 164.273 93.1005 164.372 92.8079 164.571C92.5181 164.767 92.2951 165.023 92.1388 165.338C91.9826 165.653 91.9045 165.991 91.9045 166.352V166.932C91.9045 167.426 91.9897 167.845 92.1602 168.189C92.3335 168.53 92.5735 168.79 92.8803 168.969C93.1871 169.145 93.5437 169.233 93.9499 169.233C94.2141 169.233 94.4528 169.196 94.6658 169.122C94.8817 169.045 95.0678 168.932 95.2241 168.781C95.3803 168.628 95.5011 168.437 95.5863 168.21L96.5579 168.483C96.4556 168.812 96.2837 169.102 96.0423 169.352C95.8008 169.599 95.5025 169.793 95.1474 169.932C94.7923 170.068 94.3931 170.136 93.9499 170.136ZM104.037 170.136C103.491 170.136 103.01 169.999 102.592 169.723C102.174 169.445 101.848 169.053 101.612 168.547C101.376 168.038 101.258 167.438 101.258 166.744C101.258 166.057 101.376 165.46 101.612 164.955C101.848 164.449 102.176 164.058 102.596 163.783C103.017 163.507 103.502 163.369 104.054 163.369C104.48 163.369 104.816 163.44 105.064 163.582C105.314 163.722 105.504 163.881 105.635 164.06C105.768 164.236 105.872 164.381 105.946 164.494H106.031V161.273H107.037V170H106.065V168.994H105.946C105.872 169.114 105.767 169.264 105.63 169.446C105.494 169.625 105.299 169.786 105.047 169.928C104.794 170.067 104.457 170.136 104.037 170.136ZM104.173 169.233C104.576 169.233 104.917 169.128 105.196 168.918C105.474 168.705 105.686 168.411 105.831 168.036C105.975 167.658 106.048 167.222 106.048 166.727C106.048 166.239 105.977 165.811 105.835 165.445C105.693 165.075 105.483 164.788 105.204 164.584C104.926 164.376 104.582 164.273 104.173 164.273C103.747 164.273 103.392 164.382 103.108 164.601C102.826 164.817 102.615 165.111 102.473 165.483C102.333 165.852 102.264 166.267 102.264 166.727C102.264 167.193 102.335 167.616 102.477 167.997C102.622 168.375 102.835 168.676 103.116 168.901C103.4 169.122 103.752 169.233 104.173 169.233ZM113.143 167.324V163.455H114.149V170H113.143V168.892H113.075C112.922 169.224 112.683 169.507 112.359 169.74C112.035 169.97 111.626 170.085 111.132 170.085C110.723 170.085 110.359 169.996 110.041 169.817C109.723 169.635 109.473 169.362 109.291 168.999C109.109 168.632 109.018 168.17 109.018 167.614V163.455H110.024V167.545C110.024 168.023 110.157 168.403 110.424 168.688C110.694 168.972 111.038 169.114 111.456 169.114C111.706 169.114 111.96 169.05 112.218 168.922C112.48 168.794 112.699 168.598 112.875 168.334C113.054 168.07 113.143 167.733 113.143 167.324ZM115.991 170V163.455H116.962V164.443H117.031C117.15 164.119 117.366 163.857 117.678 163.655C117.991 163.453 118.343 163.352 118.735 163.352C118.809 163.352 118.901 163.354 119.012 163.357C119.123 163.359 119.207 163.364 119.263 163.369V164.392C119.229 164.384 119.151 164.371 119.029 164.354C118.91 164.334 118.783 164.324 118.65 164.324C118.332 164.324 118.048 164.391 117.798 164.524C117.55 164.655 117.354 164.837 117.21 165.07C117.067 165.3 116.996 165.562 116.996 165.858V170H115.991ZM120.456 170V163.455H121.461V170H120.456ZM120.967 162.364C120.771 162.364 120.602 162.297 120.46 162.163C120.321 162.03 120.251 161.869 120.251 161.682C120.251 161.494 120.321 161.334 120.46 161.2C120.602 161.067 120.771 161 120.967 161C121.163 161 121.331 161.067 121.47 161.2C121.612 161.334 121.683 161.494 121.683 161.682C121.683 161.869 121.612 162.03 121.47 162.163C121.331 162.297 121.163 162.364 120.967 162.364ZM124.309 166.062V170H123.303V163.455H124.275V164.477H124.36C124.513 164.145 124.746 163.878 125.059 163.676C125.371 163.472 125.775 163.369 126.269 163.369C126.712 163.369 127.1 163.46 127.433 163.642C127.765 163.821 128.023 164.094 128.208 164.46C128.393 164.824 128.485 165.284 128.485 165.841V170H127.479V165.909C127.479 165.395 127.346 164.994 127.079 164.707C126.812 164.418 126.445 164.273 125.979 164.273C125.658 164.273 125.371 164.342 125.119 164.482C124.869 164.621 124.671 164.824 124.526 165.091C124.381 165.358 124.309 165.682 124.309 166.062ZM132.965 172.591C132.479 172.591 132.061 172.528 131.712 172.403C131.363 172.281 131.071 172.119 130.838 171.918C130.608 171.719 130.425 171.506 130.289 171.278L131.09 170.716C131.181 170.835 131.296 170.972 131.435 171.125C131.574 171.281 131.765 171.416 132.006 171.53C132.25 171.646 132.57 171.705 132.965 171.705C133.493 171.705 133.929 171.577 134.273 171.321C134.617 171.065 134.789 170.665 134.789 170.119V168.79H134.703C134.63 168.909 134.525 169.057 134.388 169.233C134.255 169.406 134.061 169.561 133.809 169.697C133.559 169.831 133.221 169.898 132.794 169.898C132.266 169.898 131.792 169.773 131.371 169.523C130.953 169.273 130.623 168.909 130.378 168.432C130.137 167.955 130.016 167.375 130.016 166.693C130.016 166.023 130.134 165.439 130.37 164.942C130.605 164.442 130.934 164.055 131.354 163.783C131.775 163.507 132.26 163.369 132.811 163.369C133.238 163.369 133.576 163.44 133.826 163.582C134.078 163.722 134.272 163.881 134.405 164.06C134.542 164.236 134.647 164.381 134.721 164.494H134.823V163.455H135.794V170.188C135.794 170.75 135.667 171.207 135.411 171.56C135.158 171.915 134.817 172.175 134.388 172.339C133.962 172.507 133.488 172.591 132.965 172.591ZM132.931 168.994C133.334 168.994 133.675 168.902 133.953 168.717C134.232 168.533 134.444 168.267 134.588 167.92C134.733 167.574 134.806 167.159 134.806 166.676C134.806 166.205 134.735 165.788 134.593 165.428C134.451 165.067 134.24 164.784 133.962 164.58C133.684 164.375 133.34 164.273 132.931 164.273C132.505 164.273 132.15 164.381 131.865 164.597C131.584 164.812 131.373 165.102 131.23 165.466C131.091 165.83 131.022 166.233 131.022 166.676C131.022 167.131 131.093 167.533 131.235 167.882C131.38 168.229 131.593 168.501 131.874 168.7C132.158 168.896 132.51 168.994 132.931 168.994ZM139.118 170L137.124 163.455H138.181L139.596 168.466H139.664L141.061 163.455H142.135L143.516 168.449H143.584L144.999 163.455H146.056L144.061 170H143.073L141.641 164.972H141.539L140.107 170H139.118ZM149.822 170.136C149.231 170.136 148.712 169.996 148.266 169.714C147.823 169.433 147.477 169.04 147.227 168.534C146.979 168.028 146.856 167.437 146.856 166.761C146.856 166.08 146.979 165.484 147.227 164.976C147.477 164.467 147.823 164.072 148.266 163.791C148.712 163.51 149.231 163.369 149.822 163.369C150.413 163.369 150.93 163.51 151.373 163.791C151.819 164.072 152.165 164.467 152.413 164.976C152.663 165.484 152.788 166.08 152.788 166.761C152.788 167.437 152.663 168.028 152.413 168.534C152.165 169.04 151.819 169.433 151.373 169.714C150.93 169.996 150.413 170.136 149.822 170.136ZM149.822 169.233C150.271 169.233 150.64 169.118 150.93 168.888C151.219 168.658 151.434 168.355 151.573 167.98C151.712 167.605 151.782 167.199 151.782 166.761C151.782 166.324 151.712 165.916 151.573 165.538C151.434 165.161 151.219 164.855 150.93 164.622C150.64 164.389 150.271 164.273 149.822 164.273C149.373 164.273 149.004 164.389 148.714 164.622C148.424 164.855 148.21 165.161 148.07 165.538C147.931 165.916 147.862 166.324 147.862 166.761C147.862 167.199 147.931 167.605 148.07 167.98C148.21 168.355 148.424 168.658 148.714 168.888C149.004 169.118 149.373 169.233 149.822 169.233ZM154.323 170V163.455H155.294V164.443H155.363C155.482 164.119 155.698 163.857 156.01 163.655C156.323 163.453 156.675 163.352 157.067 163.352C157.141 163.352 157.233 163.354 157.344 163.357C157.455 163.359 157.539 163.364 157.596 163.369V164.392C157.561 164.384 157.483 164.371 157.361 164.354C157.242 164.334 157.115 164.324 156.982 164.324C156.664 164.324 156.38 164.391 156.13 164.524C155.882 164.655 155.686 164.837 155.542 165.07C155.4 165.3 155.328 165.562 155.328 165.858V170H154.323ZM159.725 167.614L159.708 166.369H159.913L162.776 163.455H164.021L160.969 166.54H160.884L159.725 167.614ZM158.788 170V161.273H159.793V170H158.788ZM162.947 170L160.39 166.761L161.106 166.062L164.225 170H162.947ZM91.0005 187.455V178.455H91.9721V179.494H92.0914C92.1653 179.381 92.2676 179.236 92.3983 179.06C92.5318 178.881 92.7221 178.722 92.9693 178.582C93.2193 178.44 93.5574 178.369 93.9835 178.369C94.5346 178.369 95.0204 178.507 95.4409 178.783C95.8613 179.058 96.1895 179.449 96.4252 179.955C96.661 180.46 96.7789 181.057 96.7789 181.744C96.7789 182.438 96.661 183.038 96.4252 183.547C96.1895 184.053 95.8627 184.445 95.4451 184.723C95.0275 184.999 94.546 185.136 94.0005 185.136C93.5801 185.136 93.2434 185.067 92.9906 184.928C92.7377 184.786 92.5431 184.625 92.4068 184.446C92.2704 184.264 92.1653 184.114 92.0914 183.994H92.0062V187.455H91.0005ZM91.9892 181.727C91.9892 182.222 92.0616 182.658 92.2065 183.036C92.3514 183.411 92.563 183.705 92.8414 183.918C93.1199 184.128 93.4608 184.233 93.8642 184.233C94.2846 184.233 94.6355 184.122 94.9167 183.901C95.2008 183.676 95.4139 183.375 95.5559 182.997C95.7008 182.616 95.7733 182.193 95.7733 181.727C95.7733 181.267 95.7022 180.852 95.5602 180.483C95.421 180.111 95.2093 179.817 94.9252 179.601C94.644 179.382 94.2903 179.273 93.8642 179.273C93.4551 179.273 93.1113 179.376 92.8329 179.584C92.5545 179.788 92.3443 180.075 92.2022 180.445C92.0602 180.811 91.9892 181.239 91.9892 181.727ZM98.313 185V178.455H99.2846V179.443H99.3528C99.4721 179.119 99.688 178.857 100.001 178.655C100.313 178.453 100.665 178.352 101.057 178.352C101.131 178.352 101.224 178.354 101.334 178.357C101.445 178.359 101.529 178.364 101.586 178.369V179.392C101.552 179.384 101.474 179.371 101.351 179.354C101.232 179.334 101.106 179.324 100.972 179.324C100.654 179.324 100.37 179.391 100.12 179.524C99.8727 179.655 99.6767 179.837 99.5318 180.07C99.3897 180.3 99.3187 180.562 99.3187 180.858V185H98.313ZM105.238 185.136C104.647 185.136 104.128 184.996 103.682 184.714C103.239 184.433 102.893 184.04 102.643 183.534C102.395 183.028 102.272 182.437 102.272 181.761C102.272 181.08 102.395 180.484 102.643 179.976C102.893 179.467 103.239 179.072 103.682 178.791C104.128 178.51 104.647 178.369 105.238 178.369C105.829 178.369 106.346 178.51 106.789 178.791C107.235 179.072 107.581 179.467 107.829 179.976C108.079 180.484 108.204 181.08 108.204 181.761C108.204 182.437 108.079 183.028 107.829 183.534C107.581 184.04 107.235 184.433 106.789 184.714C106.346 184.996 105.829 185.136 105.238 185.136ZM105.238 184.233C105.687 184.233 106.056 184.118 106.346 183.888C106.635 183.658 106.85 183.355 106.989 182.98C107.128 182.605 107.198 182.199 107.198 181.761C107.198 181.324 107.128 180.916 106.989 180.538C106.85 180.161 106.635 179.855 106.346 179.622C106.056 179.389 105.687 179.273 105.238 179.273C104.789 179.273 104.42 179.389 104.13 179.622C103.84 179.855 103.626 180.161 103.486 180.538C103.347 180.916 103.278 181.324 103.278 181.761C103.278 182.199 103.347 182.605 103.486 182.98C103.626 183.355 103.84 183.658 104.13 183.888C104.42 184.118 104.789 184.233 105.238 184.233ZM112.381 187.591C111.895 187.591 111.477 187.528 111.128 187.403C110.779 187.281 110.487 187.119 110.254 186.918C110.024 186.719 109.841 186.506 109.705 186.278L110.506 185.716C110.597 185.835 110.712 185.972 110.851 186.125C110.99 186.281 111.181 186.416 111.422 186.53C111.666 186.646 111.986 186.705 112.381 186.705C112.909 186.705 113.345 186.577 113.689 186.321C114.033 186.065 114.205 185.665 114.205 185.119V183.79H114.119C114.046 183.909 113.941 184.057 113.804 184.233C113.671 184.406 113.477 184.561 113.225 184.697C112.975 184.831 112.637 184.898 112.21 184.898C111.682 184.898 111.208 184.773 110.787 184.523C110.369 184.273 110.039 183.909 109.794 183.432C109.553 182.955 109.432 182.375 109.432 181.693C109.432 181.023 109.55 180.439 109.786 179.942C110.021 179.442 110.35 179.055 110.77 178.783C111.191 178.507 111.676 178.369 112.227 178.369C112.654 178.369 112.992 178.44 113.242 178.582C113.494 178.722 113.688 178.881 113.821 179.06C113.958 179.236 114.063 179.381 114.137 179.494H114.239V178.455H115.21V185.188C115.21 185.75 115.083 186.207 114.827 186.56C114.574 186.915 114.233 187.175 113.804 187.339C113.378 187.507 112.904 187.591 112.381 187.591ZM112.347 183.994C112.75 183.994 113.091 183.902 113.369 183.717C113.648 183.533 113.86 183.267 114.004 182.92C114.149 182.574 114.222 182.159 114.222 181.676C114.222 181.205 114.151 180.788 114.009 180.428C113.867 180.067 113.656 179.784 113.378 179.58C113.1 179.375 112.756 179.273 112.347 179.273C111.921 179.273 111.566 179.381 111.281 179.597C111 179.812 110.789 180.102 110.646 180.466C110.507 180.83 110.438 181.233 110.438 181.676C110.438 182.131 110.509 182.533 110.651 182.882C110.796 183.229 111.009 183.501 111.29 183.7C111.574 183.896 111.926 183.994 112.347 183.994ZM117.051 185V178.455H118.023V179.443H118.091C118.21 179.119 118.426 178.857 118.739 178.655C119.051 178.453 119.404 178.352 119.796 178.352C119.869 178.352 119.962 178.354 120.073 178.357C120.183 178.359 120.267 178.364 120.324 178.369V179.392C120.29 179.384 120.212 179.371 120.09 179.354C119.97 179.334 119.844 179.324 119.71 179.324C119.392 179.324 119.108 179.391 118.858 179.524C118.611 179.655 118.415 179.837 118.27 180.07C118.128 180.3 118.057 180.562 118.057 180.858V185H117.051ZM124.061 185.136C123.431 185.136 122.887 184.997 122.429 184.719C121.975 184.438 121.624 184.045 121.377 183.543C121.132 183.037 121.01 182.449 121.01 181.778C121.01 181.108 121.132 180.517 121.377 180.006C121.624 179.491 121.968 179.091 122.408 178.804C122.851 178.514 123.368 178.369 123.959 178.369C124.3 178.369 124.637 178.426 124.969 178.54C125.301 178.653 125.604 178.838 125.877 179.094C126.149 179.347 126.367 179.682 126.529 180.099C126.691 180.517 126.771 181.031 126.771 181.642V182.068H121.726V181.199H125.749C125.749 180.83 125.675 180.5 125.527 180.21C125.382 179.92 125.175 179.692 124.905 179.524C124.638 179.357 124.323 179.273 123.959 179.273C123.558 179.273 123.212 179.372 122.919 179.571C122.629 179.767 122.406 180.023 122.25 180.338C122.094 180.653 122.016 180.991 122.016 181.352V181.932C122.016 182.426 122.101 182.845 122.271 183.189C122.445 183.53 122.685 183.79 122.992 183.969C123.298 184.145 123.655 184.233 124.061 184.233C124.325 184.233 124.564 184.196 124.777 184.122C124.993 184.045 125.179 183.932 125.335 183.781C125.492 183.628 125.612 183.437 125.698 183.21L126.669 183.483C126.567 183.812 126.395 184.102 126.154 184.352C125.912 184.599 125.614 184.793 125.259 184.932C124.904 185.068 124.504 185.136 124.061 185.136ZM132.938 179.92L132.034 180.176C131.977 180.026 131.894 179.879 131.783 179.737C131.675 179.592 131.527 179.473 131.34 179.379C131.152 179.286 130.912 179.239 130.619 179.239C130.219 179.239 129.885 179.331 129.618 179.516C129.354 179.697 129.222 179.929 129.222 180.21C129.222 180.46 129.313 180.658 129.494 180.803C129.676 180.947 129.96 181.068 130.347 181.165L131.318 181.403C131.904 181.545 132.34 181.763 132.627 182.055C132.914 182.345 133.057 182.719 133.057 183.176C133.057 183.551 132.949 183.886 132.733 184.182C132.52 184.477 132.222 184.71 131.838 184.881C131.455 185.051 131.009 185.136 130.5 185.136C129.833 185.136 129.28 184.991 128.843 184.702C128.405 184.412 128.128 183.989 128.012 183.432L128.966 183.193C129.057 183.545 129.229 183.81 129.482 183.986C129.737 184.162 130.071 184.25 130.483 184.25C130.952 184.25 131.324 184.151 131.6 183.952C131.878 183.75 132.017 183.509 132.017 183.227C132.017 183 131.938 182.81 131.779 182.656C131.619 182.5 131.375 182.384 131.046 182.307L129.955 182.051C129.355 181.909 128.915 181.689 128.634 181.391C128.355 181.089 128.216 180.713 128.216 180.261C128.216 179.892 128.32 179.565 128.527 179.281C128.737 178.997 129.023 178.774 129.384 178.612C129.747 178.45 130.159 178.369 130.619 178.369C131.267 178.369 131.776 178.511 132.145 178.795C132.517 179.08 132.781 179.455 132.938 179.92ZM139.207 179.92L138.304 180.176C138.247 180.026 138.163 179.879 138.052 179.737C137.944 179.592 137.797 179.473 137.609 179.379C137.422 179.286 137.182 179.239 136.889 179.239C136.488 179.239 136.155 179.331 135.888 179.516C135.623 179.697 135.491 179.929 135.491 180.21C135.491 180.46 135.582 180.658 135.764 180.803C135.946 180.947 136.23 181.068 136.616 181.165L137.588 181.403C138.173 181.545 138.609 181.763 138.896 182.055C139.183 182.345 139.327 182.719 139.327 183.176C139.327 183.551 139.219 183.886 139.003 184.182C138.79 184.477 138.491 184.71 138.108 184.881C137.724 185.051 137.278 185.136 136.77 185.136C136.102 185.136 135.55 184.991 135.112 184.702C134.675 184.412 134.398 183.989 134.281 183.432L135.236 183.193C135.327 183.545 135.498 183.81 135.751 183.986C136.007 184.162 136.341 184.25 136.753 184.25C137.221 184.25 137.594 184.151 137.869 183.952C138.148 183.75 138.287 183.509 138.287 183.227C138.287 183 138.207 182.81 138.048 182.656C137.889 182.5 137.645 182.384 137.315 182.307L136.224 182.051C135.625 181.909 135.184 181.689 134.903 181.391C134.625 181.089 134.486 180.713 134.486 180.261C134.486 179.892 134.589 179.565 134.797 179.281C135.007 178.997 135.292 178.774 135.653 178.612C136.017 178.45 136.429 178.369 136.889 178.369C137.537 178.369 138.045 178.511 138.415 178.795C138.787 179.08 139.051 179.455 139.207 179.92Z" fill="black"/>
</g>
<defs>
<clipPath id="clip0_91_25">
<rect width="230" height="204" fill="white"/>
</clipPath>
</defs>
</svg>
