<svg width="230" height="205" viewBox="0 0 230 205" fill="none" xmlns="http://www.w3.org/2000/svg">
<g clip-path="url(#clip0_92_34)">
<path d="M230 0.5H0V204.5H230V0.5Z" fill="white"/>
<path d="M152.334 47.0586H77.667V67.7795H152.334V47.0586Z" fill="#132C30"/>
<path d="M152.334 61.8496H77.667V67.7801H152.334V61.8496Z" fill="#F6C775"/>
<path d="M88.6348 42.5V53.0748" stroke="#333333" stroke-width="2.5" stroke-linecap="round" stroke-linejoin="round"/>
<path d="M142.102 42.5V53.0748" stroke="#333333" stroke-width="2.5" stroke-linecap="round" stroke-linejoin="round"/>
<path d="M152.326 47.4512H78.0527V121.724H152.326V47.4512Z" stroke="#333333" stroke-width="2.5" stroke-linecap="round" stroke-linejoin="round"/>
<path d="M151.94 67.7793H78.4453" stroke="#333333" stroke-width="2.5" stroke-linecap="round" stroke-linejoin="round"/>
<path d="M37.6589 156.545C37.6589 157.696 37.4511 158.69 37.0356 159.528C36.6202 160.366 36.0502 161.013 35.3258 161.467C34.6013 161.922 33.7739 162.149 32.8435 162.149C31.9131 162.149 31.0857 161.922 30.3613 161.467C29.6369 161.013 29.0669 160.366 28.6514 159.528C28.2359 158.69 28.0282 157.696 28.0282 156.545C28.0282 155.395 28.2359 154.401 28.6514 153.562C29.0669 152.724 29.6369 152.078 30.3613 151.624C31.0857 151.169 31.9131 150.942 32.8435 150.942C33.7739 150.942 34.6013 151.169 35.3258 151.624C36.0502 152.078 36.6202 152.724 37.0356 153.562C37.4511 154.401 37.6589 155.395 37.6589 156.545ZM36.3805 156.545C36.3805 155.601 36.2224 154.804 35.9064 154.154C35.5939 153.504 35.1695 153.012 34.6333 152.678C34.1006 152.344 33.504 152.178 32.8435 152.178C32.183 152.178 31.5847 152.344 31.0484 152.678C30.5158 153.012 30.0914 153.504 29.7753 154.154C29.4628 154.804 29.3066 155.601 29.3066 156.545C29.3066 157.49 29.4628 158.287 29.7753 158.937C30.0914 159.587 30.5158 160.079 31.0484 160.413C31.5847 160.746 32.183 160.913 32.8435 160.913C33.504 160.913 34.1006 160.746 34.6333 160.413C35.1695 160.079 35.5939 159.587 35.9064 158.937C36.2224 158.287 36.3805 157.49 36.3805 156.545ZM40.9668 157.078V162H39.7097V153.818H40.9241V155.097H41.0307C41.2224 154.681 41.5136 154.347 41.9043 154.095C42.2949 153.839 42.7991 153.712 43.417 153.712C43.971 153.712 44.4557 153.825 44.8712 154.053C45.2867 154.276 45.6099 154.617 45.8407 155.075C46.0715 155.53 46.1869 156.105 46.1869 156.801V162H44.9298V156.886C44.9298 156.244 44.7629 155.743 44.4291 155.384C44.0953 155.022 43.6372 154.841 43.0548 154.841C42.6535 154.841 42.2949 154.928 41.9788 155.102C41.6663 155.276 41.4195 155.53 41.2384 155.864C41.0573 156.197 40.9668 156.602 40.9668 157.078ZM56.2611 153.818V154.884H52.021V153.818H56.2611ZM53.2568 151.858H54.5139V159.656C54.5139 160.011 54.5654 160.278 54.6684 160.455C54.7749 160.629 54.9098 160.746 55.0732 160.807C55.2401 160.864 55.4159 160.892 55.6005 160.892C55.739 160.892 55.8527 160.885 55.9415 160.871C56.0302 160.853 56.1013 160.839 56.1545 160.828L56.4102 161.957C56.325 161.989 56.206 162.021 56.0533 162.053C55.9006 162.089 55.7071 162.107 55.4727 162.107C55.1176 162.107 54.7696 162.03 54.4287 161.877C54.0913 161.725 53.8108 161.492 53.587 161.18C53.3669 160.867 53.2568 160.473 53.2568 159.997V151.858ZM58.152 162V153.818H59.4091V162H58.152ZM58.7912 152.455C58.5462 152.455 58.3349 152.371 58.1574 152.204C57.9834 152.037 57.8964 151.837 57.8964 151.602C57.8964 151.368 57.9834 151.167 58.1574 151C58.3349 150.833 58.5462 150.75 58.7912 150.75C59.0363 150.75 59.2458 150.833 59.4198 151C59.5973 151.167 59.6861 151.368 59.6861 151.602C59.6861 151.837 59.5973 152.037 59.4198 152.204C59.2458 152.371 59.0363 152.455 58.7912 152.455ZM61.7116 162V153.818H62.9261V155.097H63.0326C63.2031 154.66 63.4783 154.321 63.8583 154.079C64.2382 153.834 64.6946 153.712 65.2272 153.712C65.767 153.712 66.2162 153.834 66.5749 154.079C66.9371 154.321 67.2194 154.66 67.4218 155.097H67.5071C67.7166 154.674 68.0309 154.338 68.4499 154.09C68.8689 153.838 69.3714 153.712 69.9573 153.712C70.6889 153.712 71.2872 153.941 71.7524 154.399C72.2176 154.853 72.4502 155.562 72.4502 156.524V162H71.1931V156.524C71.1931 155.92 71.028 155.489 70.6978 155.23C70.3675 154.971 69.9786 154.841 69.5312 154.841C68.9559 154.841 68.5103 155.015 68.1942 155.363C67.8782 155.707 67.7201 156.144 67.7201 156.673V162H66.4417V156.396C66.4417 155.931 66.2908 155.556 65.9889 155.272C65.6871 154.985 65.2983 154.841 64.8224 154.841C64.4957 154.841 64.1903 154.928 63.9062 155.102C63.6257 155.276 63.3984 155.517 63.2244 155.826C63.0539 156.132 62.9687 156.485 62.9687 156.886V162H61.7116ZM78.1791 162.17C77.3908 162.17 76.7107 161.996 76.139 161.648C75.5708 161.297 75.1322 160.807 74.8233 160.178C74.5179 159.546 74.3652 158.811 74.3652 157.973C74.3652 157.135 74.5179 156.396 74.8233 155.757C75.1322 155.114 75.5619 154.614 76.1123 154.255C76.6663 153.893 77.3126 153.712 78.0513 153.712C78.4774 153.712 78.8982 153.783 79.3137 153.925C79.7292 154.067 80.1074 154.298 80.4483 154.617C80.7892 154.933 81.0609 155.352 81.2633 155.874C81.4657 156.396 81.5669 157.039 81.5669 157.803V158.335H75.2601V157.249H80.2885C80.2885 156.787 80.1962 156.375 80.0115 156.013C79.8304 155.651 79.5712 155.365 79.2338 155.155C78.9 154.946 78.5058 154.841 78.0513 154.841C77.5506 154.841 77.1173 154.965 76.7516 155.214C76.3893 155.459 76.1106 155.778 75.9153 156.173C75.7199 156.567 75.6223 156.989 75.6223 157.44V158.165C75.6223 158.783 75.7288 159.306 75.9419 159.736C76.1585 160.162 76.4586 160.487 76.8421 160.711C77.2256 160.931 77.6713 161.041 78.1791 161.041C78.5094 161.041 78.8077 160.995 79.074 160.903C79.3439 160.807 79.5765 160.665 79.7718 160.477C79.9671 160.285 80.118 160.047 80.2246 159.763L81.4391 160.104C81.3112 160.516 81.0964 160.878 80.7945 161.19C80.4927 161.499 80.1198 161.741 79.6759 161.915C79.232 162.085 78.7331 162.17 78.1791 162.17ZM90.7874 162.17C90.1056 162.17 89.5037 161.998 88.9817 161.654C88.4597 161.306 88.0513 160.816 87.7565 160.184C87.4618 159.548 87.3144 158.797 87.3144 157.93C87.3144 157.071 87.4618 156.325 87.7565 155.693C88.0513 155.061 88.4614 154.573 88.987 154.228C89.5126 153.884 90.1198 153.712 90.8087 153.712C91.3414 153.712 91.7622 153.8 92.0712 153.978C92.3837 154.152 92.6216 154.351 92.7849 154.575C92.9518 154.795 93.0815 154.976 93.1738 155.118H93.2803V151.091H94.5374V162H93.3229V160.743H93.1738C93.0815 160.892 92.9501 161.08 92.7796 161.308C92.6092 161.531 92.3659 161.732 92.0498 161.909C91.7338 162.083 91.313 162.17 90.7874 162.17ZM90.9579 161.041C91.4621 161.041 91.8883 160.91 92.2363 160.647C92.5843 160.381 92.8489 160.013 93.03 159.544C93.2111 159.072 93.3016 158.527 93.3016 157.909C93.3016 157.298 93.2128 156.764 93.0353 156.306C92.8577 155.844 92.5949 155.485 92.2469 155.23C91.8989 154.971 91.4692 154.841 90.9579 154.841C90.4252 154.841 89.9813 154.978 89.6262 155.251C89.2746 155.521 89.0101 155.888 88.8325 156.354C88.6585 156.815 88.5715 157.334 88.5715 157.909C88.5715 158.491 88.6603 159.021 88.8378 159.496C89.019 159.969 89.2853 160.345 89.6369 160.626C89.992 160.903 90.4323 161.041 90.9579 161.041ZM100.445 162.17C99.6564 162.17 98.9763 161.996 98.4046 161.648C97.8364 161.297 97.3979 160.807 97.0889 160.178C96.7835 159.546 96.6308 158.811 96.6308 157.973C96.6308 157.135 96.7835 156.396 97.0889 155.757C97.3979 155.114 97.8275 154.614 98.378 154.255C98.932 153.893 99.5783 153.712 100.317 153.712C100.743 153.712 101.164 153.783 101.579 153.925C101.995 154.067 102.373 154.298 102.714 154.617C103.055 154.933 103.326 155.352 103.529 155.874C103.731 156.396 103.833 157.039 103.833 157.803V158.335H97.5257V157.249H102.554C102.554 156.787 102.462 156.375 102.277 156.013C102.096 155.651 101.837 155.365 101.499 155.155C101.166 154.946 100.771 154.841 100.317 154.841C99.8162 154.841 99.3829 154.965 99.0172 155.214C98.655 155.459 98.3762 155.778 98.1809 156.173C97.9856 156.567 97.8879 156.989 97.8879 157.44V158.165C97.8879 158.783 97.9945 159.306 98.2075 159.736C98.4241 160.162 98.7242 160.487 99.1077 160.711C99.4913 160.931 99.9369 161.041 100.445 161.041C100.775 161.041 101.073 160.995 101.34 160.903C101.61 160.807 101.842 160.665 102.037 160.477C102.233 160.285 102.384 160.047 102.49 159.763L103.705 160.104C103.577 160.516 103.362 160.878 103.06 161.19C102.758 161.499 102.385 161.741 101.942 161.915C101.498 162.085 100.999 162.17 100.445 162.17ZM107.002 151.091V162H105.745V151.091H107.002ZM109.304 162V153.818H110.561V162H109.304ZM109.944 152.455C109.699 152.455 109.487 152.371 109.31 152.204C109.136 152.037 109.049 151.837 109.049 151.602C109.049 151.368 109.136 151.167 109.31 151C109.487 150.833 109.699 150.75 109.944 150.75C110.189 150.75 110.398 150.833 110.572 151C110.75 151.167 110.838 151.368 110.838 151.602C110.838 151.837 110.75 152.037 110.572 152.204C110.398 152.371 110.189 152.455 109.944 152.455ZM119.554 153.818L116.529 162H115.25L112.225 153.818H113.588L115.847 160.338H115.932L118.191 153.818H119.554ZM124.351 162.17C123.563 162.17 122.883 161.996 122.311 161.648C121.743 161.297 121.304 160.807 120.995 160.178C120.69 159.546 120.537 158.811 120.537 157.973C120.537 157.135 120.69 156.396 120.995 155.757C121.304 155.114 121.734 154.614 122.284 154.255C122.838 153.893 123.485 153.712 124.223 153.712C124.649 153.712 125.07 153.783 125.486 153.925C125.901 154.067 126.279 154.298 126.62 154.617C126.961 154.933 127.233 155.352 127.435 155.874C127.638 156.396 127.739 157.039 127.739 157.803V158.335H121.432V157.249H126.46C126.46 156.787 126.368 156.375 126.183 156.013C126.002 155.651 125.743 155.365 125.406 155.155C125.072 154.946 124.678 154.841 124.223 154.841C123.722 154.841 123.289 154.965 122.923 155.214C122.561 155.459 122.282 155.778 122.087 156.173C121.892 156.567 121.794 156.989 121.794 157.44V158.165C121.794 158.783 121.901 159.306 122.114 159.736C122.33 160.162 122.63 160.487 123.014 160.711C123.398 160.931 123.843 161.041 124.351 161.041C124.681 161.041 124.98 160.995 125.246 160.903C125.516 160.807 125.748 160.665 125.944 160.477C126.139 160.285 126.29 160.047 126.396 159.763L127.611 160.104C127.483 160.516 127.268 160.878 126.966 161.19C126.665 161.499 126.292 161.741 125.848 161.915C125.404 162.085 124.905 162.17 124.351 162.17ZM129.651 162V153.818H130.866V155.054H130.951C131.1 154.649 131.37 154.321 131.76 154.069C132.151 153.816 132.591 153.69 133.081 153.69C133.174 153.69 133.289 153.692 133.428 153.696C133.566 153.699 133.671 153.705 133.742 153.712V154.99C133.699 154.979 133.602 154.963 133.449 154.942C133.3 154.917 133.142 154.905 132.975 154.905C132.577 154.905 132.222 154.988 131.91 155.155C131.601 155.319 131.356 155.546 131.174 155.837C130.997 156.125 130.908 156.453 130.908 156.822V162H129.651ZM136.291 165.068C136.078 165.068 135.888 165.05 135.721 165.015C135.554 164.983 135.439 164.951 135.375 164.919L135.694 163.811C136 163.889 136.269 163.918 136.504 163.896C136.738 163.875 136.946 163.77 137.127 163.582C137.312 163.397 137.48 163.097 137.633 162.682L137.867 162.043L134.842 153.818H136.206L138.464 160.338H138.549L140.808 153.818H142.171L138.698 163.193C138.542 163.616 138.349 163.966 138.118 164.243C137.887 164.523 137.619 164.731 137.314 164.866C137.012 165.001 136.671 165.068 136.291 165.068ZM148.22 162V151.091H151.906C152.762 151.091 153.461 151.245 154.005 151.554C154.552 151.86 154.956 152.273 155.219 152.795C155.482 153.317 155.613 153.9 155.613 154.543C155.613 155.185 155.482 155.77 155.219 156.295C154.96 156.821 154.559 157.24 154.015 157.552C153.472 157.861 152.776 158.016 151.927 158.016H149.285V156.844H151.885C152.471 156.844 152.941 156.743 153.296 156.54C153.651 156.338 153.909 156.064 154.069 155.72C154.232 155.372 154.314 154.979 154.314 154.543C154.314 154.106 154.232 153.715 154.069 153.371C153.909 153.026 153.65 152.756 153.291 152.561C152.932 152.362 152.456 152.263 151.863 152.263H149.541V162H148.22ZM157.571 162V153.818H158.785V155.054H158.871C159.02 154.649 159.29 154.321 159.68 154.069C160.071 153.816 160.511 153.69 161.001 153.69C161.094 153.69 161.209 153.692 161.348 153.696C161.486 153.699 161.591 153.705 161.662 153.712V154.99C161.619 154.979 161.522 154.963 161.369 154.942C161.22 154.917 161.062 154.905 160.895 154.905C160.497 154.905 160.142 154.988 159.83 155.155C159.521 155.319 159.276 155.546 159.094 155.837C158.917 156.125 158.828 156.453 158.828 156.822V162H157.571ZM166.227 162.17C165.488 162.17 164.84 161.995 164.283 161.643C163.729 161.292 163.295 160.8 162.983 160.168C162.674 159.536 162.519 158.797 162.519 157.952C162.519 157.099 162.674 156.355 162.983 155.72C163.295 155.084 163.729 154.591 164.283 154.239C164.84 153.887 165.488 153.712 166.227 153.712C166.966 153.712 167.612 153.887 168.166 154.239C168.723 154.591 169.157 155.084 169.466 155.72C169.778 156.355 169.934 157.099 169.934 157.952C169.934 158.797 169.778 159.536 169.466 160.168C169.157 160.8 168.723 161.292 168.166 161.643C167.612 161.995 166.966 162.17 166.227 162.17ZM166.227 161.041C166.788 161.041 167.25 160.897 167.612 160.61C167.974 160.322 168.242 159.944 168.416 159.475C168.59 159.006 168.677 158.499 168.677 157.952C168.677 157.405 168.59 156.895 168.416 156.423C168.242 155.951 167.974 155.569 167.612 155.278C167.25 154.987 166.788 154.841 166.227 154.841C165.666 154.841 165.204 154.987 164.842 155.278C164.48 155.569 164.212 155.951 164.038 156.423C163.864 156.895 163.777 157.405 163.777 157.952C163.777 158.499 163.864 159.006 164.038 159.475C164.212 159.944 164.48 160.322 164.842 160.61C165.204 160.897 165.666 161.041 166.227 161.041ZM171.853 162V153.818H173.068V155.097H173.174C173.345 154.66 173.62 154.321 174 154.079C174.38 153.834 174.836 153.712 175.369 153.712C175.909 153.712 176.358 153.834 176.716 154.079C177.079 154.321 177.361 154.66 177.563 155.097H177.649C177.858 154.674 178.172 154.338 178.591 154.09C179.011 153.838 179.513 153.712 180.099 153.712C180.83 153.712 181.429 153.941 181.894 154.399C182.359 154.853 182.592 155.562 182.592 156.524V162H181.335V156.524C181.335 155.92 181.17 155.489 180.839 155.23C180.509 154.971 180.12 154.841 179.673 154.841C179.098 154.841 178.652 155.015 178.336 155.363C178.02 155.707 177.862 156.144 177.862 156.673V162H176.583V156.396C176.583 155.931 176.432 155.556 176.131 155.272C175.829 154.985 175.44 154.841 174.964 154.841C174.637 154.841 174.332 154.928 174.048 155.102C173.767 155.276 173.54 155.517 173.366 155.826C173.196 156.132 173.11 156.485 173.11 156.886V162H171.853ZM184.89 162V153.818H186.147V162H184.89ZM185.53 152.455C185.284 152.455 185.073 152.371 184.896 152.204C184.722 152.037 184.635 151.837 184.635 151.602C184.635 151.368 184.722 151.167 184.896 151C185.073 150.833 185.284 150.75 185.53 150.75C185.775 150.75 185.984 150.833 186.158 151C186.336 151.167 186.424 151.368 186.424 151.602C186.424 151.837 186.336 152.037 186.158 152.204C185.984 152.371 185.775 152.455 185.53 152.455ZM194.245 155.651L193.116 155.97C193.045 155.782 192.94 155.599 192.802 155.422C192.667 155.24 192.482 155.091 192.248 154.974C192.013 154.857 191.713 154.798 191.348 154.798C190.847 154.798 190.43 154.914 190.096 155.145C189.766 155.372 189.6 155.661 189.6 156.013C189.6 156.325 189.714 156.572 189.941 156.753C190.169 156.934 190.524 157.085 191.007 157.206L192.221 157.504C192.953 157.682 193.498 157.953 193.856 158.319C194.215 158.681 194.394 159.148 194.394 159.72C194.394 160.189 194.26 160.608 193.99 160.977C193.723 161.347 193.35 161.638 192.871 161.851C192.392 162.064 191.834 162.17 191.198 162.17C190.364 162.17 189.673 161.989 189.126 161.627C188.58 161.265 188.233 160.736 188.088 160.04L189.281 159.741C189.394 160.182 189.609 160.512 189.925 160.732C190.245 160.952 190.662 161.062 191.177 161.062C191.763 161.062 192.228 160.938 192.573 160.69C192.921 160.437 193.095 160.136 193.095 159.784C193.095 159.5 192.995 159.262 192.796 159.07C192.598 158.875 192.292 158.729 191.88 158.634L190.517 158.314C189.767 158.136 189.217 157.861 188.865 157.488C188.517 157.112 188.343 156.641 188.343 156.077C188.343 155.615 188.473 155.207 188.732 154.852C188.995 154.496 189.352 154.218 189.803 154.015C190.257 153.813 190.772 153.712 191.348 153.712C192.157 153.712 192.793 153.889 193.255 154.244C193.72 154.599 194.05 155.068 194.245 155.651ZM199.717 162.17C198.929 162.17 198.249 161.996 197.677 161.648C197.109 161.297 196.67 160.807 196.361 160.178C196.056 159.546 195.903 158.811 195.903 157.973C195.903 157.135 196.056 156.396 196.361 155.757C196.67 155.114 197.1 154.614 197.65 154.255C198.204 153.893 198.851 153.712 199.589 153.712C200.015 153.712 200.436 153.783 200.852 153.925C201.267 154.067 201.645 154.298 201.986 154.617C202.327 154.933 202.599 155.352 202.801 155.874C203.004 156.396 203.105 157.039 203.105 157.803V158.335H196.798V157.249H201.827C201.827 156.787 201.734 156.375 201.55 156.013C201.368 155.651 201.109 155.365 200.772 155.155C200.438 154.946 200.044 154.841 199.589 154.841C199.089 154.841 198.655 154.965 198.29 155.214C197.927 155.459 197.649 155.778 197.453 156.173C197.258 156.567 197.16 156.989 197.16 157.44V158.165C197.16 158.783 197.267 159.306 197.48 159.736C197.697 160.162 197.997 160.487 198.38 160.711C198.764 160.931 199.209 161.041 199.717 161.041C200.047 161.041 200.346 160.995 200.612 160.903C200.882 160.807 201.115 160.665 201.31 160.477C201.505 160.285 201.656 160.047 201.763 159.763L202.977 160.104C202.849 160.516 202.634 160.878 202.333 161.19C202.031 161.499 201.658 161.741 201.214 161.915C200.77 162.085 200.271 162.17 199.717 162.17Z" fill="black"/>
<g clip-path="url(#clip1_92_34)">
<path d="M126.788 91.1993H116.575V94.9618C116.575 97.6292 114.405 99.7993 111.738 99.7993C109.07 99.7993 106.9 97.6292 106.9 94.9618V86.7918L102.54 89.4121C101.243 90.1848 100.45 91.589 100.45 93.094V96.272L95.0751 99.376C94.0471 99.9673 93.691 101.284 94.289 102.312L99.664 111.624C100.255 112.652 101.572 113.002 102.6 112.41L109.547 108.399H118.725C121.097 108.399 123.025 106.471 123.025 104.099H124.1C125.289 104.099 126.25 103.139 126.25 101.949V97.6493H126.788C127.681 97.6493 128.4 96.9304 128.4 96.0368V92.8118C128.4 91.9182 127.681 91.1993 126.788 91.1993ZM136.711 88.6865L131.336 79.3743C130.745 78.3464 129.428 77.997 128.4 78.5882L121.453 82.5993H114.586C113.78 82.5993 112.994 82.8278 112.309 83.251L110.058 84.6553C109.426 85.045 109.05 85.737 109.05 86.476V94.9618C109.05 96.4467 110.253 97.6493 111.738 97.6493C113.222 97.6493 114.425 96.4467 114.425 94.9618V89.0493H126.788C128.864 89.0493 130.55 90.7357 130.55 92.8118V94.7267L135.925 91.6226C136.953 91.0246 137.302 89.7145 136.711 88.6865Z" fill="#132C30"/>
</g>
</g>
<defs>
<clipPath id="clip0_92_34">
<rect width="230" height="205" fill="white"/>
</clipPath>
<clipPath id="clip1_92_34">
<rect width="43" height="43" fill="white" transform="translate(94 74)"/>
</clipPath>
</defs>
</svg>
