<svg width="230" height="204" fill="none" xmlns="http://www.w3.org/2000/svg"><g clip-path="url(#clip0_91_25)"><path d="M230 0H0v204h230V0z" fill="#fff"/><path d="M96.775 58.95L114.724 41l17.942 17.95H96.775z" fill="#95BEE0"/><path d="M68 88.59l47.02-47.02 47.028 47.02" stroke="#333" stroke-width="2.5" stroke-linecap="round" stroke-linejoin="round"/><path d="M132.377 84.829c-4.125-4.636-11.84-4.724-17.35 1.155-5.516-5.88-13.224-5.79-17.349-1.155-8.049 9.04.304 20.659 8.405 26.116 2.65 1.792 5.871 3.147 8.944 4.021 3.073-.866 6.294-2.229 8.945-4.021 8.101-5.465 16.454-17.075 8.405-26.116z" fill="#132C30" stroke="#333" stroke-width="2.5" stroke-linecap="round" stroke-linejoin="round"/><path d="M144.18 71.27v51.729H85.868v-51.73" stroke="#333" stroke-width="2.5" stroke-linecap="round" stroke-linejoin="round"/><path d="M64.392 147.21v-.937h6.546v.937h-2.745V155h-1.057v-7.79h-2.744zm9.076 7.943c-.415 0-.791-.078-1.13-.234a1.94 1.94 0 01-.805-.686c-.199-.301-.298-.665-.298-1.091 0-.375.074-.679.221-.912.148-.236.346-.42.593-.554a3.12 3.12 0 01.818-.298c.301-.068.603-.122.907-.162.398-.051.72-.09.968-.115.25-.029.432-.075.545-.141.117-.065.175-.179.175-.341v-.034c0-.42-.115-.747-.345-.98-.227-.233-.573-.349-1.036-.349-.48 0-.856.105-1.129.315-.273.21-.464.435-.575.673l-.955-.341c.17-.397.398-.707.682-.929.287-.224.6-.38.938-.468a3.89 3.89 0 011.005-.137 4 4 0 01.725.077c.275.048.54.149.796.303.26.153.474.385.644.694.17.31.256.725.256 1.245V155h-1.006v-.886h-.051a1.775 1.775 0 01-.341.456c-.16.162-.37.299-.635.413-.264.114-.587.17-.967.17zm.153-.903c.398 0 .733-.078 1.006-.234a1.602 1.602 0 00.835-1.385v-.921c-.043.051-.136.098-.281.141-.142.04-.307.075-.495.106a20.937 20.937 0 01-.963.128 3.89 3.89 0 00-.733.166 1.261 1.261 0 00-.545.337c-.136.148-.205.349-.205.605 0 .35.13.614.388.793.262.176.593.264.993.264zm5.62-1.636l-.017-1.245h.204l2.864-2.914h1.244l-3.05 3.085H80.4l-1.16 1.074zM78.303 155v-8.727h1.006V155h-1.006zm4.16 0l-2.557-3.239.715-.699 3.12 3.938h-1.279zm4.842.136c-.63 0-1.174-.139-1.632-.417a2.807 2.807 0 01-1.052-1.176c-.245-.506-.367-1.094-.367-1.765 0-.67.122-1.261.367-1.772.247-.515.59-.915 1.031-1.202.443-.29.96-.435 1.551-.435.341 0 .678.057 1.01.171.333.113.635.298.908.554.273.253.49.588.652 1.005.162.418.243.932.243 1.543v.426H84.97v-.869h4.023a2.15 2.15 0 00-.222-.989 1.67 1.67 0 00-.622-.686 1.747 1.747 0 00-.946-.251c-.4 0-.747.099-1.04.298-.29.196-.512.452-.669.767a2.252 2.252 0 00-.234 1.014v.58c0 .494.085.913.256 1.257.173.341.413.601.72.78.307.176.663.264 1.07.264.264 0 .502-.037.715-.111a1.53 1.53 0 00.558-.341c.157-.153.278-.344.363-.571l.971.273a2.157 2.157 0 01-.515.869 2.52 2.52 0 01-.895.58 3.326 3.326 0 01-1.198.204zm10.274 0c-.613 0-1.141-.145-1.585-.434a2.832 2.832 0 01-1.022-1.198c-.239-.508-.358-1.089-.358-1.743 0-.664.122-1.251.366-1.76.247-.511.591-.91 1.031-1.197.444-.29.96-.435 1.552-.435.46 0 .874.086 1.244.256s.672.409.907.716c.236.307.383.665.439 1.074h-1.005a1.557 1.557 0 00-.512-.793c-.261-.233-.613-.349-1.056-.349-.392 0-.736.102-1.032.307a1.995 1.995 0 00-.686.856c-.162.367-.243.797-.243 1.291 0 .506.08.946.239 1.321.162.375.39.666.682.874.295.207.642.311 1.04.311.26 0 .498-.045.711-.136a1.468 1.468 0 00.857-1.006h1.005a2.322 2.322 0 01-1.304 1.777c-.363.179-.787.268-1.27.268zm5.971.017c-.415 0-.791-.078-1.13-.234a1.94 1.94 0 01-.805-.686c-.199-.301-.298-.665-.298-1.091 0-.375.074-.679.221-.912.148-.236.346-.42.593-.554a3.12 3.12 0 01.818-.298 10.1 10.1 0 01.908-.162c.397-.051.72-.09.967-.115.25-.029.432-.075.545-.141.117-.065.175-.179.175-.341v-.034c0-.42-.115-.747-.345-.98-.227-.233-.573-.349-1.036-.349-.48 0-.856.105-1.129.315-.273.21-.464.435-.575.673l-.955-.341c.171-.397.398-.707.682-.929.287-.224.6-.38.938-.468.34-.091.676-.137 1.005-.137.21 0 .452.026.725.077.275.048.541.149.797.303.258.153.473.385.643.694.17.31.256.725.256 1.245V155h-1.006v-.886h-.051a1.77 1.77 0 01-.341.456 1.973 1.973 0 01-.635.413c-.264.114-.587.17-.967.17zm.153-.903c.398 0 .733-.078 1.006-.234.275-.157.483-.358.622-.605.142-.248.213-.508.213-.78v-.921c-.043.051-.136.098-.281.141-.142.04-.307.075-.495.106a20.68 20.68 0 01-.963.128 3.91 3.91 0 00-.733.166 1.261 1.261 0 00-.545.337c-.136.148-.205.349-.205.605 0 .35.13.614.388.793.262.176.593.264.993.264zm4.682.75v-6.545h.972v.988h.068c.119-.324.335-.586.648-.788a1.904 1.904 0 011.057-.303 10.941 10.941 0 01.528.017v1.023a3.308 3.308 0 00-.234-.038c-.12-.02-.246-.03-.38-.03-.318 0-.602.067-.852.2a1.468 1.468 0 00-.801 1.334V155h-1.006zm7.01.136c-.63 0-1.174-.139-1.632-.417a2.808 2.808 0 01-1.052-1.176c-.245-.506-.367-1.094-.367-1.765 0-.67.122-1.261.367-1.772.247-.515.59-.915 1.031-1.202.443-.29.96-.435 1.551-.435.341 0 .678.057 1.01.171.332.113.635.298.908.554.272.253.49.588.652 1.005.162.418.242.932.242 1.543v.426h-5.045v-.869h4.023c0-.369-.074-.699-.222-.989a1.67 1.67 0 00-.622-.686 1.746 1.746 0 00-.946-.251c-.401 0-.747.099-1.04.298a1.96 1.96 0 00-.669.767 2.254 2.254 0 00-.234 1.014v.58c0 .494.085.913.255 1.257.174.341.414.601.721.78.306.176.663.264 1.069.264.264 0 .503-.037.716-.111.216-.077.402-.19.558-.341a1.55 1.55 0 00.363-.571l.971.273a2.158 2.158 0 01-.515.869 2.52 2.52 0 01-.895.58 3.33 3.33 0 01-1.198.204zm10.53-6.681v.852h-3.528v-.852h3.528zM123.453 155v-7.449c0-.375.089-.687.265-.937.176-.25.405-.438.686-.563.281-.125.578-.187.89-.187.248 0 .449.02.606.059.156.04.272.077.349.111l-.29.869a5.595 5.595 0 00-.213-.064 1.313 1.313 0 00-.349-.038c-.333 0-.573.084-.721.252-.144.167-.217.413-.217.737V155h-1.006zm6.271.136c-.591 0-1.109-.14-1.555-.422a2.856 2.856 0 01-1.04-1.18c-.247-.506-.371-1.097-.371-1.773 0-.681.124-1.277.371-1.785.25-.509.596-.904 1.04-1.185.446-.281.964-.422 1.555-.422s1.108.141 1.551.422c.446.281.793.676 1.04 1.185.25.508.375 1.104.375 1.785 0 .676-.125 1.267-.375 1.773a2.822 2.822 0 01-1.04 1.18c-.443.282-.96.422-1.551.422zm0-.903c.449 0 .818-.115 1.108-.345.29-.23.504-.533.643-.908.14-.375.209-.781.209-1.219 0-.437-.069-.845-.209-1.223a2.061 2.061 0 00-.643-.916c-.29-.233-.659-.349-1.108-.349-.449 0-.818.116-1.108.349-.29.233-.504.539-.643.916-.14.378-.209.786-.209 1.223 0 .438.069.844.209 1.219.139.375.353.678.643.908.29.23.659.345 1.108.345zm4.501.767v-6.545h.972v.988h.068c.119-.324.335-.586.648-.788a1.9 1.9 0 011.056-.303 10.785 10.785 0 01.529.017v1.023a3.27 3.27 0 00-.235-.038 2.284 2.284 0 00-.379-.03c-.318 0-.602.067-.852.2a1.468 1.468 0 00-.801 1.334V155h-1.006zm8.488 2.455c-.171 0-.323-.015-.456-.043a1.19 1.19 0 01-.277-.077l.255-.886c.245.062.461.085.648.068a.778.778 0 00.499-.251c.147-.148.282-.388.405-.721l.187-.511-2.42-6.579h1.091l1.806 5.215h.069l1.806-5.215h1.091l-2.778 7.5c-.125.338-.28.617-.465.839a1.743 1.743 0 01-.643.499 1.984 1.984 0 01-.818.162zm8.456-2.319c-.591 0-1.109-.14-1.555-.422a2.863 2.863 0 01-1.04-1.18c-.247-.506-.371-1.097-.371-1.773 0-.681.124-1.277.371-1.785.25-.509.597-.904 1.04-1.185.446-.281.964-.422 1.555-.422s1.108.141 1.552.422c.446.281.792.676 1.039 1.185.25.508.375 1.104.375 1.785 0 .676-.125 1.267-.375 1.773a2.82 2.82 0 01-1.039 1.18c-.444.282-.961.422-1.552.422zm0-.903c.449 0 .819-.115 1.108-.345.29-.23.505-.533.644-.908a3.48 3.48 0 00.209-1.219c0-.437-.07-.845-.209-1.223a2.063 2.063 0 00-.644-.916c-.289-.233-.659-.349-1.108-.349-.448 0-.818.116-1.108.349a2.07 2.07 0 00-.643.916 3.518 3.518 0 00-.209 1.223c0 .438.07.844.209 1.219.139.375.354.678.643.908.29.23.66.345 1.108.345zm8.626-1.909v-3.869h1.006V155h-1.006v-1.108h-.068a2.146 2.146 0 01-.716.848c-.323.23-.733.345-1.227.345-.409 0-.773-.089-1.091-.268a1.885 1.885 0 01-.75-.818c-.182-.367-.273-.829-.273-1.385v-4.159h1.006v4.09c0 .478.134.858.401 1.143.27.284.613.426 1.031.426.25 0 .504-.064.763-.192.261-.128.48-.324.656-.588.179-.264.268-.601.268-1.01zm2.848 2.676v-6.545h.972v.988h.068c.119-.324.335-.586.648-.788a1.9 1.9 0 011.056-.303 10.785 10.785 0 01.529.017v1.023a3.27 3.27 0 00-.235-.038 2.284 2.284 0 00-.379-.03c-.318 0-.602.067-.852.2a1.468 1.468 0 00-.801 1.334V155h-1.006zm-95.111 11.062V170h-1.006v-8.727h1.006v3.204h.085a1.85 1.85 0 01.69-.805c.31-.202.722-.303 1.236-.303.446 0 .837.09 1.172.269.335.176.595.447.78.814.187.363.28.826.28 1.389V170H70.77v-4.091c0-.52-.135-.922-.405-1.206-.267-.287-.637-.43-1.112-.43-.33 0-.625.069-.886.209a1.524 1.524 0 00-.614.609c-.147.267-.221.591-.221.971zm8.743 4.074c-.591 0-1.11-.14-1.556-.422a2.861 2.861 0 01-1.04-1.18c-.246-.506-.37-1.097-.37-1.773 0-.681.124-1.277.37-1.785.25-.509.597-.904 1.04-1.185.447-.281.965-.422 1.556-.422.59 0 1.108.141 1.551.422.446.281.793.676 1.04 1.185.25.508.375 1.104.375 1.785 0 .676-.125 1.267-.375 1.773a2.823 2.823 0 01-1.04 1.18c-.443.282-.96.422-1.551.422zm0-.903c.449 0 .818-.115 1.108-.345.29-.23.504-.533.643-.908.14-.375.21-.781.21-1.219 0-.437-.07-.845-.21-1.223a2.065 2.065 0 00-.643-.916c-.29-.233-.66-.349-1.108-.349-.449 0-.818.116-1.108.349-.29.233-.504.539-.644.916a3.518 3.518 0 00-.208 1.223c0 .438.07.844.208 1.219.14.375.354.678.644.908.29.23.659.345 1.108.345zm4.5.767v-6.545h.972v1.022h.086a1.65 1.65 0 01.66-.814c.304-.196.67-.294 1.095-.294.432 0 .792.098 1.079.294.29.194.515.465.677.814h.068c.168-.338.42-.606.754-.805.336-.202.738-.303 1.207-.303.585 0 1.063.184 1.436.55.372.364.558.93.558 1.7V170H88.36v-4.381c0-.483-.132-.828-.396-1.035a1.463 1.463 0 00-.933-.311c-.46 0-.817.139-1.07.417-.253.276-.38.625-.38 1.049V170H84.56v-4.483c0-.372-.12-.672-.362-.899-.242-.23-.553-.345-.933-.345a1.37 1.37 0 00-.733.209 1.575 1.575 0 00-.546.579 1.71 1.71 0 00-.204.848V170h-1.006zm13.175.136c-.63 0-1.175-.139-1.632-.417a2.806 2.806 0 01-1.053-1.176c-.244-.506-.366-1.094-.366-1.765 0-.67.122-1.261.366-1.772a2.888 2.888 0 011.031-1.202c.444-.29.96-.435 1.552-.435a3.1 3.1 0 011.01.171c.332.113.635.298.907.554.273.253.49.588.652 1.005.162.418.243.932.243 1.543v.426h-5.045v-.869h4.022c0-.369-.073-.699-.221-.989a1.67 1.67 0 00-.622-.686 1.748 1.748 0 00-.946-.251c-.4 0-.748.099-1.04.298a1.97 1.97 0 00-.67.767 2.251 2.251 0 00-.234 1.014v.58c0 .494.086.913.256 1.257.174.341.413.601.72.78.307.176.664.264 1.07.264.264 0 .503-.037.716-.111.216-.077.402-.19.558-.341.156-.153.277-.344.362-.571l.972.273a2.158 2.158 0 01-.516.869c-.241.247-.54.441-.895.58a3.327 3.327 0 01-1.197.204zm10.087 0c-.546 0-1.027-.137-1.445-.413-.418-.278-.744-.67-.98-1.176-.236-.509-.354-1.109-.354-1.803 0-.687.118-1.284.354-1.789.236-.506.564-.897.984-1.172.421-.276.906-.414 1.458-.414.426 0 .762.071 1.01.213.25.14.44.299.571.478.133.176.237.321.311.434h.085v-3.221h1.006V170h-.972v-1.006h-.119a6.21 6.21 0 01-.316.452c-.136.179-.331.34-.583.482-.253.139-.59.208-1.01.208zm.136-.903c.403 0 .744-.105 1.023-.315.278-.213.49-.507.635-.882.144-.378.217-.814.217-1.309 0-.488-.071-.916-.213-1.282-.142-.37-.352-.657-.631-.861-.278-.208-.622-.311-1.031-.311-.426 0-.781.109-1.065.328a1.96 1.96 0 00-.635.882c-.14.369-.209.784-.209 1.244 0 .466.071.889.213 1.27.145.378.358.679.639.904.284.221.636.332 1.057.332zm8.97-1.909v-3.869h1.006V170h-1.006v-1.108h-.068a2.146 2.146 0 01-.716.848c-.324.23-.733.345-1.227.345-.409 0-.773-.089-1.091-.268a1.885 1.885 0 01-.75-.818c-.182-.367-.273-.829-.273-1.385v-4.159h1.006v4.09c0 .478.133.858.4 1.143.27.284.614.426 1.032.426.25 0 .504-.064.762-.192.262-.128.481-.324.657-.588.179-.264.268-.601.268-1.01zm2.848 2.676v-6.545h.971v.988h.069c.119-.324.335-.586.647-.788a1.906 1.906 0 011.057-.303 10.862 10.862 0 01.528.017v1.023a3.308 3.308 0 00-.234-.038 2.292 2.292 0 00-.379-.03c-.318 0-.602.067-.852.2a1.502 1.502 0 00-.588.546 1.46 1.46 0 00-.214.788V170h-1.005zm4.465 0v-6.545h1.005V170h-1.005zm.511-7.636a.713.713 0 01-.507-.201.643.643 0 01-.209-.481c0-.188.07-.348.209-.482a.717.717 0 01.507-.2c.196 0 .364.067.503.2a.639.639 0 01.213.482.636.636 0 01-.213.481.7.7 0 01-.503.201zm3.342 3.698V170h-1.006v-6.545h.972v1.022h.085c.153-.332.386-.599.699-.801.312-.204.716-.307 1.21-.307.443 0 .831.091 1.164.273.332.179.59.452.775.818.185.364.277.824.277 1.381V170h-1.006v-4.091c0-.514-.133-.915-.4-1.202-.267-.289-.634-.434-1.1-.434-.321 0-.608.069-.86.209-.25.139-.448.342-.593.609-.145.267-.217.591-.217.971zm8.656 6.529c-.486 0-.904-.063-1.253-.188a2.674 2.674 0 01-.874-.485 2.64 2.64 0 01-.549-.64l.801-.562c.091.119.206.256.345.409.139.156.33.291.571.405.244.116.564.175.959.175.528 0 .964-.128 1.308-.384.344-.256.516-.656.516-1.202v-1.329h-.086a5.085 5.085 0 01-.315.443 1.787 1.787 0 01-.579.464c-.25.134-.588.201-1.015.201a2.733 2.733 0 01-1.423-.375c-.418-.25-.748-.614-.993-1.091-.241-.477-.362-1.057-.362-1.739 0-.67.118-1.254.354-1.751.235-.5.564-.887.984-1.159a2.595 2.595 0 011.457-.414c.427 0 .765.071 1.015.213.252.14.446.299.579.478.137.176.242.321.316.434h.102v-1.039h.971v6.733c0 .562-.127 1.019-.383 1.372a2.18 2.18 0 01-1.023.779c-.426.168-.9.252-1.423.252zm-.034-3.597c.403 0 .744-.092 1.022-.277.279-.184.491-.45.635-.797.145-.346.218-.761.218-1.244 0-.471-.071-.888-.213-1.248a1.872 1.872 0 00-.631-.848c-.278-.205-.622-.307-1.031-.307-.426 0-.781.108-1.066.324a1.973 1.973 0 00-.635.869 3.366 3.366 0 00-.208 1.21c0 .455.071.857.213 1.206.145.347.358.619.639.818.284.196.636.294 1.057.294zm6.187 1.006l-1.994-6.545h1.057l1.415 5.011h.068l1.397-5.011h1.074l1.381 4.994h.068l1.415-4.994h1.057L144.061 170h-.988l-1.432-5.028h-.102L140.107 170h-.989zm10.704.136c-.591 0-1.11-.14-1.556-.422a2.861 2.861 0 01-1.039-1.18c-.248-.506-.371-1.097-.371-1.773 0-.681.123-1.277.371-1.785.25-.509.596-.904 1.039-1.185.446-.281.965-.422 1.556-.422.591 0 1.108.141 1.551.422.446.281.792.676 1.04 1.185.25.508.375 1.104.375 1.785 0 .676-.125 1.267-.375 1.773a2.829 2.829 0 01-1.04 1.18c-.443.282-.96.422-1.551.422zm0-.903c.449 0 .818-.115 1.108-.345.289-.23.504-.533.643-.908a3.48 3.48 0 00.209-1.219c0-.437-.07-.845-.209-1.223a2.07 2.07 0 00-.643-.916c-.29-.233-.659-.349-1.108-.349-.449 0-.818.116-1.108.349-.29.233-.504.539-.644.916a3.518 3.518 0 00-.208 1.223c0 .438.069.844.208 1.219.14.375.354.678.644.908.29.23.659.345 1.108.345zm4.501.767v-6.545h.971v.988h.069c.119-.324.335-.586.647-.788a1.906 1.906 0 011.057-.303 10.862 10.862 0 01.529.017v1.023a3.49 3.49 0 00-.235-.038 2.292 2.292 0 00-.379-.03c-.318 0-.602.067-.852.2a1.468 1.468 0 00-.802 1.334V170h-1.005zm5.402-2.386l-.017-1.245h.205l2.863-2.914h1.245l-3.052 3.085h-.085l-1.159 1.074zm-.937 2.386v-8.727h1.005V170h-1.005zm4.159 0l-2.557-3.239.716-.699 3.119 3.938h-1.278zM91 187.455v-9h.972v1.039h.12c.073-.113.176-.258.306-.434.134-.179.324-.338.571-.478.25-.142.588-.213 1.015-.213.55 0 1.036.138 1.457.414.42.275.748.666.984 1.172.236.505.354 1.102.354 1.789 0 .694-.118 1.294-.354 1.803-.236.506-.562.898-.98 1.176-.417.276-.899.413-1.444.413-.42 0-.758-.069-1.01-.208a1.87 1.87 0 01-.584-.482 6.332 6.332 0 01-.316-.452h-.085v3.461h-1.005zm.99-5.728c0 .495.072.931.217 1.309.144.375.356.669.634.882.279.21.62.315 1.023.315.42 0 .771-.111 1.053-.332.284-.225.497-.526.639-.904.145-.381.217-.804.217-1.27 0-.46-.07-.875-.213-1.244a1.924 1.924 0 00-.635-.882c-.281-.219-.635-.328-1.06-.328-.41 0-.754.103-1.032.311a1.862 1.862 0 00-.63.861c-.143.366-.214.794-.214 1.282zM98.312 185v-6.545h.972v.988h.068a1.57 1.57 0 01.648-.788 1.9 1.9 0 011.056-.303 10.785 10.785 0 01.529.017v1.023a3.27 3.27 0 00-.235-.038 2.284 2.284 0 00-.379-.03c-.318 0-.602.067-.852.2a1.467 1.467 0 00-.801 1.334V185h-1.006zm6.925.136c-.591 0-1.11-.14-1.556-.422a2.861 2.861 0 01-1.039-1.18c-.248-.506-.371-1.097-.371-1.773 0-.681.123-1.277.371-1.785.25-.509.596-.904 1.039-1.185.446-.281.965-.422 1.556-.422.591 0 1.108.141 1.551.422.446.281.792.676 1.04 1.185.25.508.375 1.104.375 1.785 0 .676-.125 1.267-.375 1.773a2.829 2.829 0 01-1.04 1.18c-.443.282-.96.422-1.551.422zm0-.903c.449 0 .818-.115 1.108-.345.289-.23.504-.533.643-.908a3.48 3.48 0 00.209-1.219c0-.437-.07-.845-.209-1.223a2.07 2.07 0 00-.643-.916c-.29-.233-.659-.349-1.108-.349-.449 0-.818.116-1.108.349-.29.233-.504.539-.644.916a3.518 3.518 0 00-.208 1.223c0 .438.069.844.208 1.219.14.375.354.678.644.908.29.23.659.345 1.108.345zm7.143 3.358c-.486 0-.904-.063-1.253-.188a2.674 2.674 0 01-.874-.485 2.64 2.64 0 01-.549-.64l.801-.562c.091.119.206.256.345.409.139.156.33.291.571.405.244.116.564.175.959.175.528 0 .964-.128 1.308-.384.344-.256.516-.656.516-1.202v-1.329h-.086a5.085 5.085 0 01-.315.443 1.787 1.787 0 01-.579.464c-.25.134-.588.201-1.015.201a2.733 2.733 0 01-1.423-.375c-.418-.25-.748-.614-.993-1.091-.241-.477-.362-1.057-.362-1.739 0-.67.118-1.254.354-1.751.235-.5.564-.887.984-1.159a2.595 2.595 0 011.457-.414c.427 0 .765.071 1.015.213.252.14.446.299.579.478.137.176.242.321.316.434h.102v-1.039h.971v6.733c0 .562-.127 1.019-.383 1.372a2.18 2.18 0 01-1.023.779c-.426.168-.9.252-1.423.252zm-.034-3.597c.403 0 .744-.092 1.022-.277.279-.184.491-.45.635-.797.145-.346.218-.761.218-1.244 0-.471-.071-.888-.213-1.248a1.872 1.872 0 00-.631-.848c-.278-.205-.622-.307-1.031-.307-.426 0-.781.108-1.066.324a1.973 1.973 0 00-.635.869 3.366 3.366 0 00-.208 1.21c0 .455.071.857.213 1.206.145.347.358.619.639.818.284.196.636.294 1.057.294zM117.05 185v-6.545h.972v.988h.068c.119-.324.335-.586.648-.788a1.904 1.904 0 011.057-.303 10.941 10.941 0 01.528.017v1.023a3.308 3.308 0 00-.234-.038c-.12-.02-.246-.03-.38-.03-.318 0-.602.067-.852.2a1.468 1.468 0 00-.801 1.334V185h-1.006zm7.01.136c-.63 0-1.174-.139-1.632-.417a2.808 2.808 0 01-1.052-1.176c-.245-.506-.367-1.094-.367-1.765 0-.67.122-1.261.367-1.772a2.888 2.888 0 011.031-1.202c.443-.29.96-.435 1.551-.435.341 0 .678.057 1.01.171.332.113.635.298.908.554.272.253.49.588.652 1.005.162.418.242.932.242 1.543v.426h-5.045v-.869h4.023c0-.369-.074-.699-.222-.989a1.67 1.67 0 00-.622-.686 1.746 1.746 0 00-.946-.251c-.401 0-.747.099-1.04.298a1.96 1.96 0 00-.669.767 2.254 2.254 0 00-.234 1.014v.58c0 .494.085.913.255 1.257.174.341.414.601.721.78.306.176.663.264 1.069.264.264 0 .503-.037.716-.111.216-.077.402-.19.558-.341a1.55 1.55 0 00.363-.571l.971.273a2.158 2.158 0 01-.515.869 2.52 2.52 0 01-.895.58 3.33 3.33 0 01-1.198.204zm8.877-5.216l-.904.256a1.684 1.684 0 00-.251-.439 1.226 1.226 0 00-.443-.358c-.188-.093-.428-.14-.721-.14-.4 0-.734.092-1.001.277-.264.181-.396.413-.396.694 0 .25.091.448.272.593.182.144.466.265.853.362l.971.238c.586.142 1.022.36 1.309.652.287.29.43.664.43 1.121 0 .375-.108.71-.324 1.006a2.153 2.153 0 01-.895.699c-.383.17-.829.255-1.338.255-.667 0-1.22-.145-1.657-.434-.438-.29-.715-.713-.831-1.27l.954-.239c.091.352.263.617.516.793.255.176.589.264 1.001.264.469 0 .841-.099 1.117-.298.278-.202.417-.443.417-.725a.762.762 0 00-.238-.571c-.16-.156-.404-.272-.733-.349l-1.091-.256c-.6-.142-1.04-.362-1.321-.66-.279-.302-.418-.678-.418-1.13 0-.369.104-.696.311-.98.21-.284.496-.507.857-.669a3.001 3.001 0 011.235-.243c.648 0 1.157.142 1.526.426.372.285.636.66.793 1.125zm6.269 0l-.903.256a1.689 1.689 0 00-.252-.439 1.217 1.217 0 00-.443-.358c-.187-.093-.427-.14-.72-.14-.401 0-.734.092-1.001.277-.265.181-.397.413-.397.694 0 .25.091.448.273.593.182.144.466.265.852.362l.972.238c.585.142 1.021.36 1.308.652.287.29.431.664.431 1.121 0 .375-.108.71-.324 1.006a2.16 2.16 0 01-.895.699c-.384.17-.83.255-1.338.255-.668 0-1.22-.145-1.658-.434-.437-.29-.714-.713-.831-1.27l.955-.239c.091.352.262.617.515.793.256.176.59.264 1.002.264.468 0 .841-.099 1.116-.298.279-.202.418-.443.418-.725a.763.763 0 00-.239-.571c-.159-.156-.403-.272-.733-.349l-1.091-.256c-.599-.142-1.04-.362-1.321-.66-.278-.302-.417-.678-.417-1.13 0-.369.103-.696.311-.98.21-.284.495-.507.856-.669a3.01 3.01 0 011.236-.243c.648 0 1.156.142 1.526.426.372.285.636.66.792 1.125z" fill="#000"/></g><defs><clipPath id="clip0_91_25"><path fill="#fff" d="M0 0h230v204H0z"/></clipPath></defs></svg>