<svg width="230" height="205" fill="none" xmlns="http://www.w3.org/2000/svg"><g clip-path="url(#clip0_92_34)"><path d="M230 .5H0v204h230V.5z" fill="#fff"/><path d="M152.334 47.059H77.667v20.72h74.667V47.06z" fill="#132C30"/><path d="M152.334 61.85H77.667v5.93h74.667v-5.93z" fill="#F6C775"/><path d="M88.635 42.5v10.575M142.102 42.5v10.575m10.224-5.624H78.053v74.273h74.273V47.451zm-.386 20.329H78.445" stroke="#333" stroke-width="2.5" stroke-linecap="round" stroke-linejoin="round"/><path d="M37.659 156.545c0 1.151-.208 2.145-.623 2.983-.416.838-.986 1.485-1.71 1.939-.725.455-1.552.682-2.483.682-.93 0-1.757-.227-2.482-.682-.724-.454-1.294-1.101-1.71-1.939-.415-.838-.623-1.832-.623-2.983 0-1.15.208-2.144.623-2.983.416-.838.986-1.484 1.71-1.938.725-.455 1.552-.682 2.482-.682.93 0 1.758.227 2.483.682.724.454 1.294 1.1 1.71 1.938.415.839.623 1.833.623 2.983zm-1.279 0c0-.944-.158-1.741-.474-2.391-.312-.65-.736-1.142-1.273-1.476a3.3 3.3 0 00-1.79-.5c-.66 0-1.258.166-1.795.5-.532.334-.957.826-1.273 1.476-.312.65-.468 1.447-.468 2.391 0 .945.156 1.742.468 2.392.316.65.74 1.142 1.273 1.476.537.333 1.135.5 1.796.5a3.31 3.31 0 001.79-.5c.535-.334.96-.826 1.272-1.476.316-.65.474-1.447.474-2.392zm4.587.533V162H39.71v-8.182h1.214v1.279h.107c.191-.416.483-.75.873-1.002.39-.256.895-.383 1.513-.383.554 0 1.039.113 1.454.341.416.223.739.564.97 1.022.23.455.346 1.03.346 1.726V162H44.93v-5.114c0-.642-.167-1.143-.5-1.502-.335-.362-.793-.543-1.375-.543-.401 0-.76.087-1.076.261-.313.174-.56.428-.74.762-.182.333-.272.738-.272 1.214zm15.294-3.26v1.066h-4.24v-1.066h4.24zm-3.004-1.96h1.257v7.798c0 .355.051.622.154.799a.804.804 0 00.405.352c.167.057.343.085.527.085.139 0 .253-.007.341-.021l.213-.043.256 1.129a2.555 2.555 0 01-.357.096 2.593 2.593 0 01-.58.054c-.355 0-.703-.077-1.044-.23a2.07 2.07 0 01-.842-.697c-.22-.313-.33-.707-.33-1.183v-8.139zM58.152 162v-8.182h1.257V162h-1.257zm.64-9.545a.894.894 0 01-.635-.251.804.804 0 01-.26-.602c0-.234.086-.435.26-.602a.893.893 0 01.634-.25c.245 0 .455.083.629.25a.798.798 0 01.266.602.796.796 0 01-.266.602.876.876 0 01-.629.251zm2.92 9.545v-8.182h1.214v1.279h.107c.17-.437.445-.776.825-1.018.38-.245.837-.367 1.37-.367.539 0 .988.122 1.347.367.362.242.644.581.847 1.018h.085c.21-.423.524-.759.943-1.007.419-.252.921-.378 1.507-.378.732 0 1.33.229 1.795.687.466.454.698 1.163.698 2.125V162h-1.257v-5.476c0-.604-.165-1.035-.495-1.294a1.835 1.835 0 00-1.167-.389c-.575 0-1.02.174-1.337.522-.316.344-.474.781-.474 1.31V162h-1.278v-5.604c0-.465-.151-.84-.453-1.124-.302-.287-.69-.431-1.167-.431-.326 0-.632.087-.916.261a1.97 1.97 0 00-.682.724 2.14 2.14 0 00-.255 1.06V162h-1.257zm16.467.17c-.788 0-1.468-.174-2.04-.522a3.497 3.497 0 01-1.316-1.47c-.305-.632-.458-1.367-.458-2.205 0-.838.153-1.577.458-2.216.31-.643.739-1.143 1.29-1.502.553-.362 1.2-.543 1.938-.543.426 0 .847.071 1.263.213.415.142.793.373 1.134.692.341.316.613.735.815 1.257.203.522.304 1.165.304 1.929v.532H75.26v-1.086h5.028a2.69 2.69 0 00-.276-1.236 2.092 2.092 0 00-.778-.858c-.334-.209-.728-.314-1.183-.314-.5 0-.934.124-1.3.373a2.447 2.447 0 00-.836.959 2.812 2.812 0 00-.293 1.267v.725c0 .618.107 1.141.32 1.571.217.426.517.751.9.975.384.22.83.33 1.337.33.33 0 .629-.046.895-.138a1.92 1.92 0 00.698-.426 1.94 1.94 0 00.453-.714l1.214.341a2.687 2.687 0 01-.644 1.086 3.142 3.142 0 01-1.12.725 4.15 4.15 0 01-1.496.255zm12.608 0c-.681 0-1.283-.172-1.805-.516-.522-.348-.93-.838-1.225-1.47-.295-.636-.443-1.387-.443-2.254 0-.859.148-1.605.443-2.237.294-.632.704-1.12 1.23-1.465.526-.344 1.133-.516 1.822-.516.532 0 .953.088 1.262.266.313.174.55.373.714.597.167.22.297.401.389.543h.106v-4.027h1.257V162h-1.214v-1.257h-.15a8.242 8.242 0 01-.393.565 2.34 2.34 0 01-.73.601c-.316.174-.737.261-1.263.261zm.17-1.129c.505 0 .931-.131 1.28-.394.347-.266.612-.634.793-1.103.181-.472.272-1.017.272-1.635 0-.611-.09-1.145-.267-1.603-.177-.462-.44-.821-.788-1.076-.348-.259-.778-.389-1.29-.389-.532 0-.976.137-1.33.41-.352.27-.617.637-.794 1.103a4.38 4.38 0 00-.261 1.555c0 .582.088 1.112.266 1.587.181.473.447.849.799 1.13.355.277.795.415 1.32.415zm9.488 1.129c-.789 0-1.469-.174-2.04-.522a3.498 3.498 0 01-1.316-1.47c-.305-.632-.458-1.367-.458-2.205 0-.838.153-1.577.458-2.216.309-.643.739-1.143 1.289-1.502.554-.362 1.2-.543 1.939-.543.426 0 .847.071 1.262.213.416.142.794.373 1.135.692.341.316.612.735.815 1.257.202.522.304 1.165.304 1.929v.532h-6.307v-1.086h5.028c0-.462-.092-.874-.277-1.236a2.088 2.088 0 00-.778-.858c-.333-.209-.728-.314-1.182-.314-.5 0-.934.124-1.3.373a2.447 2.447 0 00-.836.959 2.813 2.813 0 00-.293 1.267v.725c0 .618.106 1.141.32 1.571.216.426.516.751.9.975.383.22.829.33 1.337.33.33 0 .628-.046.895-.138.27-.096.502-.238.697-.426.196-.192.347-.43.453-.714l1.215.341a2.688 2.688 0 01-.645 1.086 3.149 3.149 0 01-1.118.725 4.16 4.16 0 01-1.497.255zm6.557-11.079V162h-1.257v-10.909h1.257zM109.304 162v-8.182h1.257V162h-1.257zm.64-9.545a.893.893 0 01-.634-.251.804.804 0 01-.261-.602c0-.234.087-.435.261-.602a.892.892 0 01.634-.25c.245 0 .454.083.628.25a.796.796 0 01.266.602.794.794 0 01-.266.602.874.874 0 01-.628.251zm9.61 1.363L116.529 162h-1.279l-3.025-8.182h1.363l2.259 6.52h.085l2.259-6.52h1.363zm4.797 8.352c-.788 0-1.468-.174-2.04-.522a3.5 3.5 0 01-1.316-1.47c-.305-.632-.458-1.367-.458-2.205 0-.838.153-1.577.458-2.216.309-.643.739-1.143 1.289-1.502.554-.362 1.201-.543 1.939-.543.426 0 .847.071 1.263.213.415.142.793.373 1.134.692.341.316.613.735.815 1.257.203.522.304 1.165.304 1.929v.532h-6.307v-1.086h5.028c0-.462-.092-.874-.277-1.236a2.093 2.093 0 00-.777-.858c-.334-.209-.728-.314-1.183-.314-.501 0-.934.124-1.3.373a2.446 2.446 0 00-.836.959 2.817 2.817 0 00-.293 1.267v.725c0 .618.107 1.141.32 1.571.216.426.516.751.9.975.384.22.829.33 1.337.33.33 0 .629-.046.895-.138.27-.096.502-.238.698-.426.195-.192.346-.43.452-.714l1.215.341a2.688 2.688 0 01-.645 1.086 3.131 3.131 0 01-1.118.725 4.16 4.16 0 01-1.497.255zm5.3-.17v-8.182h1.215v1.236h.085c.149-.405.419-.733.809-.985a2.378 2.378 0 011.321-.379 12.407 12.407 0 01.661.022v1.278a3.427 3.427 0 00-.293-.048 2.865 2.865 0 00-.474-.037c-.398 0-.753.083-1.065.25a1.904 1.904 0 00-.736.682 1.842 1.842 0 00-.266.985V162h-1.257zm6.64 3.068c-.213 0-.403-.018-.57-.053a1.5 1.5 0 01-.346-.096l.319-1.108c.306.078.575.107.81.085a.97.97 0 00.623-.314c.185-.185.353-.485.506-.9l.234-.639-3.025-8.225h1.364l2.258 6.52h.085l2.259-6.52h1.363l-3.473 9.375a3.535 3.535 0 01-.58 1.05c-.231.28-.499.488-.804.623a2.48 2.48 0 01-1.023.202zM148.22 162v-10.909h3.686c.856 0 1.555.154 2.099.463.547.306.951.719 1.214 1.241a3.83 3.83 0 01.394 1.748 3.86 3.86 0 01-.394 1.752 2.92 2.92 0 01-1.204 1.257c-.543.309-1.239.464-2.088.464h-2.642v-1.172h2.6c.586 0 1.056-.101 1.411-.304.355-.202.613-.476.773-.82.163-.348.245-.741.245-1.177 0-.437-.082-.828-.245-1.172a1.745 1.745 0 00-.778-.81c-.359-.199-.835-.298-1.428-.298h-2.322V162h-1.321zm9.351 0v-8.182h1.214v1.236h.086c.149-.405.419-.733.809-.985a2.378 2.378 0 011.321-.379 12.407 12.407 0 01.661.022v1.278a3.427 3.427 0 00-.293-.048 2.865 2.865 0 00-.474-.037c-.398 0-.753.083-1.065.25a1.904 1.904 0 00-.736.682 1.842 1.842 0 00-.266.985V162h-1.257zm8.656.17c-.739 0-1.387-.175-1.944-.527a3.575 3.575 0 01-1.3-1.475c-.309-.632-.464-1.371-.464-2.216 0-.853.155-1.597.464-2.232a3.574 3.574 0 011.3-1.481c.557-.352 1.205-.527 1.944-.527.739 0 1.385.175 1.939.527.557.352.991.845 1.3 1.481.312.635.468 1.379.468 2.232 0 .845-.156 1.584-.468 2.216a3.534 3.534 0 01-1.3 1.475c-.554.352-1.2.527-1.939.527zm0-1.129c.561 0 1.023-.144 1.385-.431.362-.288.63-.666.804-1.135.174-.469.261-.976.261-1.523 0-.547-.087-1.057-.261-1.529a2.577 2.577 0 00-.804-1.145c-.362-.291-.824-.437-1.385-.437s-1.023.146-1.385.437c-.362.291-.63.673-.804 1.145a4.388 4.388 0 00-.261 1.529c0 .547.087 1.054.261 1.523.174.469.442.847.804 1.135.362.287.824.431 1.385.431zm5.626.959v-8.182h1.215v1.279h.106c.171-.437.446-.776.826-1.018.38-.245.836-.367 1.369-.367.54 0 .989.122 1.347.367.363.242.645.581.847 1.018h.086c.209-.423.523-.759.942-1.007.42-.252.922-.378 1.508-.378.731 0 1.33.229 1.795.687.465.454.698 1.163.698 2.125V162h-1.257v-5.476c0-.604-.165-1.035-.496-1.294a1.834 1.834 0 00-1.166-.389c-.575 0-1.021.174-1.337.522-.316.344-.474.781-.474 1.31V162h-1.279v-5.604c0-.465-.151-.84-.452-1.124-.302-.287-.691-.431-1.167-.431-.327 0-.632.087-.916.261a1.966 1.966 0 00-.682.724c-.17.306-.256.659-.256 1.06V162h-1.257zm13.037 0v-8.182h1.257V162h-1.257zm.64-9.545a.892.892 0 01-.634-.251.804.804 0 01-.261-.602c0-.234.087-.435.261-.602a.89.89 0 01.634-.25c.245 0 .454.083.628.25a.796.796 0 01.266.602.794.794 0 01-.266.602.874.874 0 01-.628.251zm8.715 3.196l-1.129.319a2.1 2.1 0 00-.314-.548 1.52 1.52 0 00-.554-.448c-.235-.117-.535-.176-.9-.176-.501 0-.918.116-1.252.347-.33.227-.496.516-.496.868 0 .312.114.559.341.74.228.181.583.332 1.066.453l1.214.298c.732.178 1.277.449 1.635.815.359.362.538.829.538 1.401 0 .469-.134.888-.404 1.257-.267.37-.64.661-1.119.874-.479.213-1.037.319-1.673.319-.834 0-1.525-.181-2.072-.543-.546-.362-.893-.891-1.038-1.587l1.193-.299c.113.441.328.771.644.991.32.22.737.33 1.252.33.586 0 1.051-.124 1.396-.372.348-.253.522-.554.522-.906 0-.284-.1-.522-.299-.714-.198-.195-.504-.341-.916-.436l-1.363-.32c-.75-.178-1.3-.453-1.652-.826-.348-.376-.522-.847-.522-1.411 0-.462.13-.87.389-1.225.263-.356.62-.634 1.071-.837.454-.202.969-.303 1.545-.303.809 0 1.445.177 1.907.532.465.355.795.824.99 1.407zm5.472 6.519c-.788 0-1.468-.174-2.04-.522a3.5 3.5 0 01-1.316-1.47c-.305-.632-.458-1.367-.458-2.205 0-.838.153-1.577.458-2.216.309-.643.739-1.143 1.289-1.502.554-.362 1.201-.543 1.939-.543.426 0 .847.071 1.263.213.415.142.793.373 1.134.692.341.316.613.735.815 1.257.203.522.304 1.165.304 1.929v.532h-6.307v-1.086h5.029a2.69 2.69 0 00-.277-1.236 2.102 2.102 0 00-.778-.858c-.334-.209-.728-.314-1.183-.314-.5 0-.934.124-1.299.373a2.448 2.448 0 00-.837.959 2.817 2.817 0 00-.293 1.267v.725c0 .618.107 1.141.32 1.571.217.426.517.751.9.975.384.22.829.33 1.337.33.33 0 .629-.046.895-.138.27-.096.503-.238.698-.426a1.95 1.95 0 00.453-.714l1.214.341a2.697 2.697 0 01-.644 1.086 3.144 3.144 0 01-1.119.725 4.16 4.16 0 01-1.497.255z" fill="#000"/><g clip-path="url(#clip1_92_34)"><path d="M126.788 91.2h-10.213v3.762a4.843 4.843 0 01-4.837 4.837 4.843 4.843 0 01-4.838-4.837v-8.17l-4.36 2.62a4.29 4.29 0 00-2.09 3.682v3.178l-5.375 3.104a2.145 2.145 0 00-.786 2.936l5.375 9.312a2.15 2.15 0 002.936.786l6.947-4.011h9.178c2.372 0 4.3-1.928 4.3-4.3h1.075c1.189 0 2.15-.96 2.15-2.15v-4.3h.538c.893 0 1.612-.719 1.612-1.612v-3.225c0-.894-.719-1.613-1.612-1.613zm9.923-2.514l-5.375-9.312a2.15 2.15 0 00-2.936-.786l-6.947 4.011h-6.867a4.33 4.33 0 00-2.277.652l-2.251 1.404a2.135 2.135 0 00-1.008 1.821v8.486a2.687 2.687 0 105.375 0v-5.913h12.363a3.765 3.765 0 013.762 3.763v1.915l5.375-3.104a2.152 2.152 0 00.786-2.937z" fill="#132C30"/></g></g><defs><clipPath id="clip0_92_34"><path fill="#fff" d="M0 0h230v205H0z"/></clipPath><clipPath id="clip1_92_34"><path fill="#fff" transform="translate(94 74)" d="M0 0h43v43H0z"/></clipPath></defs></svg>